<svg xmlns="http://www.w3.org/2000/svg" width="114" height="114" fill="none"><path fill="#4788FF" d="M13 53h6v13h-6z"/><path fill="#F04716" d="M18 47h6v25h-6z"/><path fill="#4788FF" d="M95 53h6v13h-6z"/><path fill="#F04716" d="M90 47h6v25h-6z"/><path fill="#A3A6B2" d="M26 30h62v9H26z"/><path fill="#36383F" fill-rule="evenodd" d="M31.5 22c-.8 0-1.5.7-1.5 1.5V29h-4.5c-.8 0-1.5.7-1.5 1.5v.5h-8.5a3.5 3.5 0 1 0 0 7H24v.5c0 .8.7 1.5 1.5 1.5H30v15h-4v-5.5a4.5 4.5 0 1 0-9 0v1.6a4 4 0 0 0-5 3.9v9a4 4 0 0 0 5 3.9v1.6a4.5 4.5 0 1 0 9 0V64h4v18.9L23.9 89H13.5a1.5 1.5 0 0 0 0 3h87a1.5 1.5 0 0 0 0-3H90.1L84 82.9V64h4v5.5a4.5 4.5 0 1 0 9 0v-1.6a4 4 0 0 0 5-3.9v-9a4 4 0 0 0-5-3.9v-1.6a4.5 4.5 0 1 0-9 0V55h-4V40h4.5c.8 0 1.5-.7 1.5-1.5V38h8.5a3.5 3.5 0 1 0 0-7H90v-.5c0-.8-.7-1.5-1.5-1.5H84v-5.5c0-.8-.7-1.5-1.5-1.5h-7c-.8 0-1.5.7-1.5 1.5V29H40v-5.5c0-.8-.7-1.5-1.5-1.5h-7ZM97 55v9a1 1 0 1 0 2 0v-9a1 1 0 1 0-2 0Zm-3-5.5a1.5 1.5 0 0 0-3 0v20a1.5 1.5 0 0 0 3 0v-20ZM17 64v-9a1 1 0 1 0-2 0v9a1 1 0 1 0 2 0Zm3 5.5a1.5 1.5 0 0 0 3 0v-20a1.5 1.5 0 0 0-3 0v20ZM37 29h-4v-4h4v4Zm-21.5 5H24v1h-8.5a.5.5 0 0 1 0-1ZM87 32H27v5h60v-5Zm11.5 3H90v-1h8.5a.5.5 0 0 1 0 1ZM33 55V40h4v15h-4Zm7 0V40h34v15H40Zm37 0V40h4v15h-4Zm-51 6v-3h62v3H26Zm7 28V64h4v25h-4Zm7-6.1V64h34v18.9L67.9 89H46L40 82.9ZM77 89V64h4v25h-4Zm8.9 0H84v-1.9l1.9 1.9ZM74 87.1V89h-1.9l1.9-1.9Zm-34 0 1.9 1.9H40v-1.9Zm-10 0V89h-1.9l1.9-1.9ZM81 25v4h-4v-4h4Z" clip-rule="evenodd"/></svg>