<svg xmlns="http://www.w3.org/2000/svg" width="81" height="66" fill="none"><path fill="#4788FF" fill-rule="evenodd" d="M72 28H40v27h32V28Zm-8 7H49v8h15v-8Z" clip-rule="evenodd"/><path fill="#DEDFE7" d="M2 55h77v9H2z"/><path fill="#F04716" d="M17 34h15v10H17zM35 2h11v12l-5.5-3-5.5 3V2Z"/><rect width="77" height="9" x="2" y="55" stroke="#36383F" stroke-linejoin="round" stroke-width="3" rx="2"/><rect width="32" height="27" x="8" y="28" stroke="#36383F" stroke-linejoin="round" stroke-width="3" rx="2"/><rect width="32" height="27" x="40" y="28" stroke="#36383F" stroke-linejoin="round" stroke-width="3" rx="2"/><rect width="32" height="26" x="24" y="2" stroke="#36383F" stroke-linejoin="round" stroke-width="3" rx="2"/><rect width="15" height="8" x="17" y="35" stroke="#36383F" stroke-linejoin="round" stroke-width="3" rx="2"/><rect width="15" height="8" x="49" y="35" stroke="#36383F" stroke-linejoin="round" stroke-width="3" rx="2"/><path stroke="#36383F" stroke-linecap="round" stroke-linejoin="round" stroke-width="3" d="M35 7v7l5.5-3 5.5 3V7"/></svg>