<svg xmlns="http://www.w3.org/2000/svg" width="94" height="94" fill="none"><path fill="#DEDFE7" d="m35.5 70.5-3 4 3 4h4V84l4.5 3 4.298-3v-5.5H55.5v-8h-7.202V65L44 62l-4.5 3v5.5h-4ZM69.5 70.5v8H76v5l4.5 3.5 4.5-3.5v-5h4l3-4-3.5-4H85v-5L80.5 62 76 65.5v5h-6.5Z"/><path fill="#F04716" d="M12 34.5 5.5 37c-1.6-6 4-14.5 7-18 0-2.5 2-6 5.5-7 3.5-7 9.5-8 15.5-7.5 5.5-4 12.5-3 17.5 0 9.6-1.6 14.333 4.333 15.5 7.5 4.4 1.2 5.5 4.167 5.5 5.5l1.5 4.5 4.5 9 1.5 5.5-7-2-3-6h-55l-2.5 6Z"/><path fill="#4788FF" d="M26.5 70.5v22h33l-4.5-6v-8h-6.5l-1 6-2.5 2h-2L39.5 83l-.5-4.5h-2.5l-4-2V73l-6-2.5ZM12.5 18.5l-6 10h71l-5.5-10H12.5Z"/><path fill="#36383F" d="M25.615 42.012a1.87 1.87 0 0 1 1.867-1.867 1.87 1.87 0 0 1 1.867 1.867 1.377 1.377 0 0 0 2.754 0 4.626 4.626 0 0 0-4.621-4.621 4.626 4.626 0 0 0-4.621 4.62 1.377 1.377 0 0 0 2.754 0ZM54.614 42.012a1.87 1.87 0 0 1 1.867-1.867 1.87 1.87 0 0 1 1.868 1.867 1.377 1.377 0 0 0 2.754 0 4.626 4.626 0 0 0-4.622-4.621 4.626 4.626 0 0 0-4.62 4.62 1.377 1.377 0 0 0 2.753 0Z"/><path fill="#36383F" d="m10.671 52.928.113-.002a32.665 32.665 0 0 0 4.374 8.916 1.377 1.377 0 0 0 2.26-1.573 29.89 29.89 0 0 1-4.291-9.142l-.004-.018a30.193 30.193 0 0 1 2.15-21.549h53.7c5.955 11.775 3.458 26.02-5.884 35.114a9.092 9.092 0 0 0-.944-.054h-.005a8.372 8.372 0 0 0-7.647 4.92h-4.774v-2.727c0-3.198-2.596-5.83-5.83-5.83a5.837 5.837 0 0 0-5.83 5.83v2.726h-1.845a5.073 5.073 0 0 0-4.013 1.972 30.18 30.18 0 0 1-11.393-7.182 1.377 1.377 0 0 0-1.952 1.943 32.94 32.94 0 0 0 4.834 4.003c-1.082.811-2.484 2.054-3.877 3.838-2.573 3.297-5.641 9.185-5.641 18.51 0 .76.617 1.376 1.377 1.376h46.596c4.635 0 8.406-3.77 8.406-8.406v-5.922h4.02v2.726a5.837 5.837 0 0 0 5.83 5.83 5.837 5.837 0 0 0 5.83-5.83V79.67h1.845a5.071 5.071 0 0 0 5.065-5.065 5.071 5.071 0 0 0-5.065-5.066H86.23v-2.726a5.837 5.837 0 0 0-5.83-5.83 5.837 5.837 0 0 0-5.83 5.83v2.726h-4.78a8.459 8.459 0 0 0-3.74-3.953 32.66 32.66 0 0 0 7.407-12.66l.116.002c5.411 0 9.813-4.402 9.813-9.813a9.76 9.76 0 0 0-2.043-5.983 39.379 39.379 0 0 0-2.684-9.487 39.654 39.654 0 0 0-5.494-9.215c-.057-3.115-1.853-6.513-5.88-7.66a15.193 15.193 0 0 0-6.806-6.568 15.193 15.193 0 0 0-9.372-1.247A15.195 15.195 0 0 0 42.123 0h-.003c-3.22 0-6.379 1.041-8.972 2.947-6.514-1.317-13.174 1.89-16.199 7.825-4.02 1.15-5.814 4.545-5.872 7.657a39.734 39.734 0 0 0-5.493 9.215 39.425 39.425 0 0 0-2.681 9.486 9.76 9.76 0 0 0-2.044 5.985c0 5.41 4.401 9.813 9.812 9.813ZM53.77 72.293c-.065.739-.015 1.648-.032 4.624H49.72v-4.624h4.05Zm-9.88 13.18a3.08 3.08 0 0 1-3.077-3.076V66.813a3.08 3.08 0 0 1 3.076-3.076 3.083 3.083 0 0 1 3.076 3.076v15.584a3.08 3.08 0 0 1-3.076 3.076Zm-5.831-13.18v4.624h-1.845a2.314 2.314 0 0 1-2.312-2.312 2.316 2.316 0 0 1 2.312-2.312h1.845ZM16.95 91.246c.22-6.105 1.915-11.376 4.934-15.31a18.404 18.404 0 0 1 2.986-3.089v18.399h-7.92Zm10.674-18.672a34.358 34.358 0 0 0 3.55 1.499c-.316 2.982 2.032 5.598 5.039 5.598h1.845v2.726a5.837 5.837 0 0 0 5.83 5.83c3.181 0 5.83-2.585 5.83-5.83V79.67h4.019v5.923a8.395 8.395 0 0 0 2.189 5.653H27.625V72.574Zm60.451-.28a2.314 2.314 0 0 1 2.312 2.311 2.314 2.314 0 0 1-2.312 2.312h-1.845v-4.624h1.845Zm-10.752-5.48a3.08 3.08 0 0 1 3.076-3.077 3.08 3.08 0 0 1 3.077 3.076v15.584a3.08 3.08 0 0 1-3.077 3.076 3.08 3.08 0 0 1-3.076-3.076V66.813Zm-6.804 5.48h4.05v4.623h-4.019c-.017-3.114.033-3.888-.031-4.624Zm-2.723.726v12.573a5.66 5.66 0 0 1-5.652 5.653H62.132a5.662 5.662 0 0 1-5.64-5.652V73.027c0-3.236 2.719-5.805 5.938-5.645 2.97.15 5.363 2.61 5.367 5.638ZM6.251 34.353a36.593 36.593 0 0 1 1.524-4.793h4.443a34.923 34.923 0 0 0-1.43 3.743 9.846 9.846 0 0 0-4.537 1.05Zm-2.638 8.762c0-3.639 2.778-6.7 6.438-7.03a33.13 33.13 0 0 0-.002 14.062c-3.602-.316-6.436-3.35-6.436-7.032Zm74.382-8.762a9.939 9.939 0 0 0-4.538-1.05 34.647 34.647 0 0 0-1.43-3.743h4.443a36.555 36.555 0 0 1 1.525 4.793Zm-3.798 15.794c1.031-4.723.98-9.56-.003-14.061 3.725.335 6.44 3.459 6.44 7.03 0 3.681-2.836 6.715-6.437 7.03ZM13.118 20.286h39.197a1.377 1.377 0 0 0 0-2.754H13.917c.316-1.795 1.501-3.577 4.096-4.192.099-.024.163-.037.196-.045.77-.172.992-.884 1.026-.93 2.457-5.222 8.306-7.997 13.906-6.597.42.104.87 0 1.206-.27a12.43 12.43 0 0 1 7.773-2.744h.003c2.817 0 5.577.973 7.782 2.75.33.266.765.365 1.178.269 2.747-.64 5.659-.318 8.2.909a12.416 12.416 0 0 1 5.803 5.843c.309.673.957.767.975.775 2.492.552 3.898 2.139 4.265 4.232H57.823a1.377 1.377 0 0 0 0 2.753h13.302a36.945 36.945 0 0 1 4.122 6.521H8.998a36.962 36.962 0 0 1 4.12-6.52Z"/></svg>