<svg xmlns="http://www.w3.org/2000/svg" width="114" height="114" fill="none"><g clip-path="url(#a)"><path fill="#A3A6B2" d="M60 29h45v6H60z"/><path fill="#4788FF" d="M1 1h7v111H1zM53 1h7v111h-7z"/><path fill="#F04716" d="M105 21h7.5v91H105V21Z"/><path stroke="#36383F" stroke-linecap="round" stroke-linejoin="round" stroke-width="3" d="M105.5 29.5v-8h7v58m-7-50h-45m45 0v7m-45-7v-28h-7v8m7 20v7m0 0v76h-7v-96m7 20h45m0 0v76h7v-17m-59-79v-7m0 7h-7.3m-37.7 0v96h-7V1.5h7v8m0 7v-7m0 7H37m-28.5-7h45m59 78.3v-2.2"/></g><defs><clipPath id="a"><path fill="#fff" d="M0 0h114v114H0z"/></clipPath></defs></svg>