<svg xmlns="http://www.w3.org/2000/svg">
	<defs>
		<style>
			:root svg:not(:target) {
				display: none;
			}
		</style>
	</defs>

  <svg id="logo"
    viewBox="0 0 571 136" fill="none">
    <path fill="#0A4ECB" fill-rule="evenodd" d="M0 45.24v45.52c0 8.13 4.33 15.64 11.36 19.7l39.12 22.53c6.94 4 15.47 4.01 22.43.04l39.52-22.6a22.72 22.72 0 0 0 11.43-19.72V45.29c0-8.16-4.36-15.7-11.43-19.73L72.91 2.97a22.53 22.53 0 0 0-22.43.04L11.36 25.55A22.72 22.72 0 0 0 0 45.25Zm9.83 45.52V45.24c0-4.6 2.45-8.84 6.42-11.13l8.82-5.08v77.94l-8.82-5.08a12.84 12.84 0 0 1-6.42-11.13Zm34.9 27.53 10.64 6.14a12.73 12.73 0 0 0 12.68.02l35.5-20.3H44.23a4.93 4.93 0 0 1 0-9.87h69.3c.32-1.14.5-2.35.5-3.57V53.8h-69.8a4.93 4.93 0 0 1 0-9.87h69.73a12.84 12.84 0 0 0-6.39-9.8L68.05 11.55a12.73 12.73 0 0 0-12.68.02L44.73 17.7V40a8.87 8.87 0 0 0-8.85 8.88c0 4.91 3.96 8.89 8.85 8.89v32.57a8.87 8.87 0 0 0-8.85 8.89c0 4.9 3.96 8.88 8.85 8.88v10.2Z" clip-rule="evenodd"/>
    <path fill="#F04716" d="M168.42 77.88a44 44 0 0 1-11.22-1.43c-3.63-.95-6.58-2.22-8.84-3.8l4.42-9.93c2.13 1.4 4.6 2.54 7.4 3.4 2.82.86 5.58 1.29 8.3 1.29 5.17 0 7.76-1.3 7.76-3.88 0-1.36-.75-2.35-2.25-2.99-1.45-.68-3.8-1.38-7.07-2.1a72 72 0 0 1-8.97-2.46 15.4 15.4 0 0 1-6.2-4.28c-1.72-1.95-2.58-4.58-2.58-7.89 0-2.9.8-5.5 2.38-7.82 1.59-2.35 3.95-4.21 7.07-5.57 3.18-1.36 7.05-2.04 11.63-2.04 3.13 0 6.21.36 9.25 1.08 3.04.68 5.71 1.7 8.03 3.06l-4.15 10c-4.54-2.45-8.93-3.67-13.2-3.67-2.67 0-4.62.4-5.84 1.22-1.23.77-1.84 1.8-1.84 3.06 0 1.27.73 2.22 2.18 2.86 1.45.63 3.78 1.3 7 1.97 3.63.77 6.62 1.61 8.98 2.52 2.4.86 4.46 2.26 6.19 4.21 1.76 1.9 2.65 4.51 2.65 7.82 0 2.86-.8 5.44-2.38 7.75-1.59 2.32-3.97 4.18-7.14 5.58-3.18 1.36-7.03 2.04-11.56 2.04ZM220.2 29.33c4.3 0 8.04.72 11.22 2.17a16.35 16.35 0 0 1 7.34 6.12 16.61 16.61 0 0 1 2.58 9.32c0 3.58-.86 6.69-2.58 9.32a16.94 16.94 0 0 1-7.34 6.12c-3.18 1.4-6.92 2.1-11.22 2.1h-8.3v12.45h-13.46v-47.6h21.76Zm-.82 24.55c2.77 0 4.85-.6 6.26-1.77 1.4-1.23 2.1-2.95 2.1-5.17 0-2.22-.7-3.94-2.1-5.17-1.4-1.22-3.5-1.83-6.26-1.83h-7.48v13.94h7.48ZM275.3 77.88c-5.04 0-9.57-1.06-13.6-3.2a24.32 24.32 0 0 1-9.45-8.84c-2.27-3.76-3.4-8-3.4-12.71 0-4.72 1.13-8.95 3.4-12.72a24.31 24.31 0 0 1 9.45-8.84 28.67 28.67 0 0 1 13.6-3.2c5.03 0 9.54 1.07 13.53 3.2a23.72 23.72 0 0 1 9.45 8.84 23.8 23.8 0 0 1 3.47 12.72 23.8 23.8 0 0 1-3.47 12.71 23.72 23.72 0 0 1-9.45 8.84 28.27 28.27 0 0 1-13.53 3.2Zm0-11.15c2.4 0 4.57-.57 6.52-1.7a12.3 12.3 0 0 0 4.63-4.76 14.71 14.71 0 0 0 1.7-7.14c0-2.68-.57-5.03-1.7-7.07a12.18 12.18 0 0 0-4.63-4.83 12.75 12.75 0 0 0-6.52-1.7c-2.4 0-4.58.57-6.53 1.7a12.16 12.16 0 0 0-4.63 4.83 14.31 14.31 0 0 0-1.7 7.07c0 2.67.57 5.05 1.7 7.14a12.28 12.28 0 0 0 4.63 4.76 12.75 12.75 0 0 0 6.53 1.7ZM332.33 64.28h-7.35v12.65h-13.46v-47.6h21.76c4.3 0 8.05.72 11.22 2.17a16.34 16.34 0 0 1 7.34 6.12 16.61 16.61 0 0 1 2.59 9.32c0 3.45-.82 6.46-2.45 9.04a16.18 16.18 0 0 1-6.87 5.99l10.27 14.96h-14.42l-8.63-12.65Zm8.5-17.34c0-2.22-.7-3.94-2.11-5.17-1.4-1.22-3.49-1.83-6.26-1.83h-7.48v13.94h7.48c2.77 0 4.86-.6 6.26-1.77 1.4-1.23 2.1-2.95 2.1-5.17ZM374.04 40h-14.62V29.33h42.64V40h-14.55v36.93h-13.47V40ZM433.14 77.88c-5.04 0-9.57-1.06-13.6-3.2a24.32 24.32 0 0 1-9.46-8.84c-2.26-3.76-3.4-8-3.4-12.71 0-4.72 1.14-8.95 3.4-12.72a24.32 24.32 0 0 1 9.46-8.84 28.67 28.67 0 0 1 13.6-3.2c5.03 0 9.54 1.07 13.53 3.2a23.7 23.7 0 0 1 9.45 8.84 23.8 23.8 0 0 1 3.47 12.72 23.8 23.8 0 0 1-3.47 12.71 23.7 23.7 0 0 1-9.45 8.84 28.27 28.27 0 0 1-13.53 3.2Zm0-11.15c2.4 0 4.57-.57 6.52-1.7a12.28 12.28 0 0 0 4.63-4.76 14.7 14.7 0 0 0 1.7-7.14c0-2.68-.57-5.03-1.7-7.07a12.16 12.16 0 0 0-4.63-4.83 12.75 12.75 0 0 0-6.52-1.7c-2.4 0-4.58.57-6.53 1.7a12.18 12.18 0 0 0-4.63 4.83 14.32 14.32 0 0 0-1.7 7.07c0 2.67.57 5.05 1.7 7.14a12.3 12.3 0 0 0 4.63 4.76 12.75 12.75 0 0 0 6.53 1.7ZM515.98 29.33l-20.4 47.6h-13.26l-20.33-47.6h14.55l12.92 31 13.2-31h13.32ZM551.72 67.68h-20.13l-3.74 9.25h-13.74l21.02-47.6h13.26l21.08 47.6h-14.01l-3.74-9.25Zm-3.95-9.93-6.12-15.23-6.12 15.23h12.24Z"/>
    <path fill="#3E73D6" d="M157.06 108.11c-1.32 0-2.51-.29-3.58-.87a6.51 6.51 0 0 1-3.38-5.89c0-1.28.3-2.43.9-3.46a6.43 6.43 0 0 1 2.5-2.43 7.31 7.31 0 0 1 3.57-.87c1 0 1.9.16 2.74.49.84.33 1.55.81 2.13 1.44l-.9.9a5.3 5.3 0 0 0-3.93-1.58c-1.05 0-2 .24-2.87.72a5.35 5.35 0 0 0-2.75 4.79 5.35 5.35 0 0 0 2.75 4.79c.86.48 1.82.72 2.87.72 1.6 0 2.91-.53 3.94-1.6l.89.9a5.84 5.84 0 0 1-2.15 1.46 7.4 7.4 0 0 1-2.73.5ZM183.25 94.7V108h-1.38V95.92h-8.42V108h-1.39V94.7h11.2ZM200.8 108.11c-1.32 0-2.52-.29-3.6-.87a6.6 6.6 0 0 1-2.5-2.43 6.77 6.77 0 0 1-.9-3.46 6.47 6.47 0 0 1 3.4-5.87 7.3 7.3 0 0 1 3.6-.9c1.31 0 2.5.3 3.55.88a6.65 6.65 0 0 1 3.42 5.89 6.47 6.47 0 0 1-3.42 5.89 7.2 7.2 0 0 1-3.56.87Zm0-1.25c1.05 0 2-.23 2.84-.7a5.24 5.24 0 0 0 2-1.98c.48-.85.72-1.8.72-2.83 0-1.04-.24-1.98-.72-2.81a5.07 5.07 0 0 0-2-1.98 5.67 5.67 0 0 0-2.85-.72c-1.05 0-2 .24-2.86.72a5.2 5.2 0 0 0-2.02 1.98 5.54 5.54 0 0 0-.72 2.81 5.39 5.39 0 0 0 5.6 5.51ZM223.32 94.7c1.7 0 3.03.4 3.99 1.22a4.14 4.14 0 0 1 1.44 3.34c0 1.42-.48 2.53-1.44 3.34-.96.8-2.3 1.2-3.99 1.2h-3.57v4.2h-1.4V94.7h4.97Zm-.04 7.87c1.32 0 2.33-.29 3.02-.86.7-.58 1.05-1.4 1.05-2.45 0-1.08-.35-1.9-1.05-2.47-.7-.58-1.7-.87-3.02-.87h-3.53v6.65h3.53ZM247.12 95.92h-4.67V108h-1.39V95.92h-4.67V94.7h10.73v1.22ZM256.81 94.7h1.39v11.02l8.51-11.02h1.27V108h-1.38V97l-8.52 11h-1.27V94.7ZM287.58 101.14c.92.2 1.62.56 2.1 1.12.49.55.73 1.26.73 2.15 0 1.15-.42 2.04-1.24 2.66-.8.62-2 .93-3.59.93h-5.89V94.7h5.53c1.42 0 2.53.3 3.32.87.8.59 1.2 1.43 1.2 2.53 0 .75-.19 1.38-.57 1.9-.38.5-.91.89-1.6 1.14Zm-6.5-.42h4.06c1.03 0 1.81-.2 2.36-.62.56-.42.84-1.03.84-1.83s-.28-1.4-.84-1.82a3.81 3.81 0 0 0-2.36-.63h-4.06v4.9Zm4.5 6.16c2.3 0 3.44-.86 3.44-2.57 0-1.67-1.15-2.5-3.44-2.5h-4.5v5.07h4.5ZM312.26 94.7V108h-1.39v-6.14h-8.32V108h-1.4V94.7h1.4v5.93h8.32V94.7h1.39ZM329.53 99.45c1.58 0 2.77.35 3.6 1.06.83.71 1.25 1.75 1.25 3.12 0 1.43-.44 2.52-1.33 3.27-.88.73-2.14 1.1-3.8 1.1h-5.28V94.7h1.38v4.75h4.18Zm-.32 7.43c1.23 0 2.16-.27 2.8-.82.64-.54.96-1.35.96-2.41 0-2.04-1.25-3.06-3.76-3.06h-3.86v6.29h3.86Zm7.47-12.18h1.38V108h-1.38V94.7ZM359.17 106.78V108h-9.41V94.7h9.12v1.22h-7.71v4.73h6.87v1.2h-6.87v4.93h8ZM386.1 101.9h-3.04v6.1h-1.36V94.7h1.37v5.97h3.04l4.5-5.97h1.52l-4.94 6.46 5.22 6.84h-1.61l-4.7-6.1ZM407.6 108.11c-1.3 0-2.5-.29-3.58-.87a6.6 6.6 0 0 1-2.51-2.43 6.76 6.76 0 0 1-.9-3.46 6.47 6.47 0 0 1 3.4-5.87 7.3 7.3 0 0 1 3.6-.9c1.32 0 2.5.3 3.55.88a6.65 6.65 0 0 1 3.42 5.89 6.47 6.47 0 0 1-3.42 5.89 7.2 7.2 0 0 1-3.55.87Zm0-1.25c1.06 0 2.01-.23 2.86-.7a5.25 5.25 0 0 0 2-1.98c.48-.85.72-1.8.72-2.83 0-1.04-.25-1.98-.73-2.81a5.08 5.08 0 0 0-2-1.98 5.68 5.68 0 0 0-2.84-.72c-1.05 0-2 .24-2.87.72a5.2 5.2 0 0 0-2.01 1.98 5.53 5.53 0 0 0-.73 2.81 5.38 5.38 0 0 0 5.6 5.51ZM438.97 94.7V108h-1.35V97.36l-5.22 8.95h-.67l-5.22-8.9V108h-1.35V94.7h1.16l5.77 9.86 5.72-9.86h1.16ZM461.86 94.7V108h-1.38V95.92h-8.42V108h-1.39V94.7h11.2ZM483.8 94.7V108h-1.39V95.92h-6.42l-.15 4.44a26.38 26.38 0 0 1-.46 4.45 5.5 5.5 0 0 1-1.06 2.5c-.49.55-1.13.82-1.92.82-.34 0-.7-.04-1.07-.13l.12-1.25c.21.05.42.07.62.07.56 0 1.01-.22 1.35-.66.36-.45.62-1.13.8-2.05.18-.94.3-2.18.36-3.71l.2-5.7h9.02ZM504.9 106.78V108h-9.4V94.7h9.12v1.22h-7.71v4.73h6.88v1.2h-6.88v4.93h8ZM519.66 101.9h-3.04v6.1h-1.37V94.7h1.37v5.97h3.04l4.5-5.97h1.52l-4.94 6.46 5.23 6.84h-1.62l-4.7-6.1ZM541.14 108.11c-1.32 0-2.5-.29-3.57-.87a6.51 6.51 0 0 1-3.38-5.89c0-1.28.3-2.43.89-3.46a6.43 6.43 0 0 1 2.5-2.43 7.31 7.31 0 0 1 3.58-.87c.99 0 1.9.16 2.74.49.83.33 1.54.81 2.12 1.44l-.89.9a5.3 5.3 0 0 0-3.93-1.58c-1.05 0-2.01.24-2.87.72a5.35 5.35 0 0 0-2.76 4.79 5.35 5.35 0 0 0 2.75 4.79c.87.48 1.83.72 2.88.72 1.6 0 2.9-.53 3.93-1.6l.9.9a5.84 5.84 0 0 1-2.15 1.46 7.4 7.4 0 0 1-2.74.5ZM561.72 99.45c1.56 0 2.76.35 3.59 1.06.83.71 1.25 1.75 1.25 3.12 0 1.43-.44 2.52-1.33 3.27-.87.73-2.14 1.1-3.8 1.1h-5.28V94.7h1.38v4.75h4.19Zm-.33 7.43c1.23 0 2.16-.27 2.8-.82.64-.54.96-1.35.96-2.41 0-2.04-1.25-3.06-3.76-3.06h-3.86v6.29h3.86Zm7.47-12.18h1.39V108h-1.4V94.7Z"/>
  </svg>

  <svg id="search"
    viewBox="0 0 19 19" fill="none">
    <circle cx="8" cy="8" r="7.5" stroke="#0a4ecb"/>
    <path stroke="#0a4ecb" stroke-linecap="round" stroke-linejoin="round" d="m13.5 13.5 5 5"/>
  </svg>
  
  <svg id="cart"
    viewBox="0 0 22 19" fill="none">
    <path fill="currentColor" fill-rule="evenodd" d="M0 .5C0 .22.22 0 .5 0h3a.5.5 0 0 1 .49.38L4.89 4H21.5a.5.5 0 0 1 .48.65l-2.5 8A.5.5 0 0 1 19 13H6.5a.5.5 0 0 1-.49-.38L3.11 1H.5A.5.5 0 0 1 0 .5ZM5.14 5l1.75 7h11.74l2.19-7H5.14ZM8.5 18a1.5 1.5 0 1 0 0-3 1.5 1.5 0 0 0 0 3Zm0 1a2.5 2.5 0 1 0 0-5 2.5 2.5 0 0 0 0 5ZM16.5 18a1.5 1.5 0 1 0 0-3 1.5 1.5 0 0 0 0 3Zm0 1a2.5 2.5 0 1 0 0-5 2.5 2.5 0 0 0 0 5Z" clip-rule="evenodd"/>
  </svg>
  
  <svg id="favorites"
    viewBox="0 0 24 20" fill="none">
    <path stroke="currentColor" d="M12 4C10-.5 1-.3 1 7c0 6.3 6.5 10 11 12 4.5-2 11-5.7 11-12 0-7.3-9-7.5-11-3Z"/>
  </svg>

  <svg id="arrow"
    viewBox="0 0 56 56" fill="none">
    <path stroke="currentColor" stroke-linecap="round" stroke-linejoin="round" stroke-width="2" d="m30 22-6 6 6 6"/>
  </svg>
</svg>
