<svg xmlns="http://www.w3.org/2000/svg">
	<defs>
		<style>
			:root svg:not(:target) {
				display: none;
			}
		</style>
	</defs>
  <svg id="swedish-walls"
    viewBox="0 0 114 114" fill="none">
      <path fill="var(--color-gray-lightest)" d="M60.56 16.43V9.31h44.76v7.12H60.56Z"/>
      <path fill="var(--color-blue-light)" d="M1.56 1.56h7.12v110.88H1.56V1.56Z"/>
      <path fill="var(--color-red)" d="M53.44 1.56h7.12v110.88h-7.12V1.56Z"/>
      <path fill="var(--color-gray-lightest)" d="M8.68 16.43V9.31h44.76v7.12H8.68ZM8.68 38.5v-7.13h44.76v7.13H8.68ZM8.68 60.56v-7.12h44.76v7.12H8.68ZM8.68 82.63V75.5h44.76v7.13H8.68ZM8.68 104.69v-7.12h44.76v7.12H8.68Z"/>
      <path fill="var(--color-blue-light)" d="M105.32 1.56h7.12v110.88h-7.12V1.56ZM82.94 31.51a12.92 12.92 0 1 0 0 25.85 12.92 12.92 0 0 0 0-25.85Zm0 18.72a5.8 5.8 0 1 1 0-11.59 5.8 5.8 0 0 1 0 11.6Z"/>
      <path fill="var(--color-blue-light)" d="M79.38 32.02v7.85a5.76 5.76 0 0 1 7.12 0v-7.85c-2.32-.68-4.8-.68-7.12 0Z"/>
      <path fill="var(--color-gray-light)" d="M82.94 31.51c1.2 0 2.4.18 3.56.51V9.32h-7.12v22.7c1.15-.33 2.35-.5 3.56-.5Z"/>
      <path fill="currentColor" d="M22.49 40.06h1.22a1.56 1.56 0 1 0 0-3.12H22.5a1.56 1.56 0 1 0 0 3.12Z"/>
      <path fill="currentColor" d="M112.44 27.32a1.56 1.56 0 0 0 1.56-1.56V1.56A1.56 1.56 0 0 0 112.44 0h-7.12a1.56 1.56 0 0 0-1.56 1.56v6.19H62.12v-6.2A1.56 1.56 0 0 0 60.56 0h-7.12a1.56 1.56 0 0 0-1.56 1.56v6.19H10.24v-6.2A1.56 1.56 0 0 0 8.68 0H1.56A1.56 1.56 0 0 0 0 1.56v110.88A1.56 1.56 0 0 0 1.56 114h7.12a1.56 1.56 0 0 0 1.56-1.56v-6.19h41.64v6.2a1.56 1.56 0 0 0 1.56 1.55h7.12a1.57 1.57 0 0 0 1.56-1.56V18h15.7V30.9a14.48 14.48 0 1 0 10.24 0V18h15.7v94.44a1.57 1.57 0 0 0 1.56 1.56h7.12a1.57 1.57 0 0 0 1.56-1.56V36.63a1.56 1.56 0 1 0-3.12 0v74.25h-4V3.12h4v22.64a1.57 1.57 0 0 0 1.56 1.56Zm-27.5-16.45v4h-4v-4h4ZM51.88 36.94h-20.6a1.56 1.56 0 1 0 0 3.12h20.6v11.82H10.24V40.06h4.68a1.56 1.56 0 0 0 0-3.12h-4.68v-4h41.64v4Zm0 22.06H10.24v-4h41.64v4Zm-41.64 3.12h41.64v11.82H10.24V62.12Zm0 14.94h41.64v4H10.24v-4Zm41.64-47.24H10.24V17.99h41.64v11.83ZM10.24 84.18h41.64v11.83H10.24V84.18Zm41.64-73.31v4H10.24v-4h41.64ZM7.12 110.88h-4V3.12h4v107.76Zm3.12-7.75v-4h41.64v4H10.24ZM59 110.88h-4V3.12h4v107.76Zm3.12-96v-4.01h15.7v4h-15.7Zm18.3 26.16a4.18 4.18 0 0 1 1.1-.58l.16-.05c.82-.25 1.7-.25 2.52 0l.16.05a4.18 4.18 0 0 1 1.1.58 4.24 4.24 0 1 1-5.04 0Zm4.37-3.71c-.22-.06-.45-.11-.68-.15l-.26-.04a6.7 6.7 0 0 0-1.82 0l-.26.04c-.23.04-.46.1-.68.15l-.15.03v-4.1l.14-.03.12-.01.5-.07.29-.03c.26-.03.52-.04.78-.04h.34c.26 0 .52.01.78.04.1 0 .2.02.29.03l.5.07.12.01.14.03v4.1l-.15-.03Zm9.52 7.1A11.37 11.37 0 1 1 77.8 34.3v4.87a7.36 7.36 0 1 0 10.25 0V34.3a11.37 11.37 0 0 1 6.24 10.14ZM84.94 30.1l-.25-.03a12.36 12.36 0 0 0-1.75-.12 13.96 13.96 0 0 0-1.75.12l-.25.03V18h4v12.1Zm3.12-15.22v-4.01h15.7v4h-15.7Z"/>
  </svg>

  <svg id="horizontal-bars"
    viewBox="0 0 114 114" fill="none">
    <path fill="var(--color-gray-light)" d="M60 29h45v6H60z"/>
    <path fill="var(--color-blue-light)" d="M1 1h7v111H1zM53 1h7v111h-7z"/>
    <path fill="var(--color-red)" d="M105 21h7.5v91H105V21Z"/>
    <path stroke="currentColor" stroke-linecap="round" stroke-linejoin="round" stroke-width="3" d="M105.5 29.5v-8h7v58m-7-50h-45m45 0v7m-45-7v-28h-7v8m7 20v7m0 0v76h-7v-96m7 20h45m0 0v76h7v-17m-59-79v-7m0 7h-7.3m-37.7 0v96h-7V1.5h7v8m0 7v-7m0 7H37m-28.5-7h45m59 78.3v-2.2"/>
  </svg>
  
  <svg id="street-complexes"
    viewBox="0 0 114 114" fill="none">
    <path fill="var(--color-gray-lightest)" d="M36 6h70v8H36z"/>
    <path fill="var(--color-blue-light)" d="M29 1h8v112h-8V1ZM1 1h8v112H1V1Z"/>
    <path fill="var(--color-red)" d="M105 1h7.5v111H105V1Z"/>
    <path stroke="currentColor" stroke-linecap="round" stroke-linejoin="round" stroke-width="3" d="M105.5 6.5v-5h7v18m-7-13h-69m69 0v7m-69-7v-5h-7v5m7 0v7m0 0v99h-7v-15m7-84h11m58 0v99h7v-77m-7-22h-11m-65 0v-7m0 7h-3.3m3.3 0v14m-21-14v-7m0 7H18m-9.5 0v14m0-21v-5h-7v111h7v-15m0-91h21m83 21.3v-2.2m-83 1.9h-21m21 0v7m-21-7v7m0 0h21m-21 0v14m21-14v14m-21 0h21m-21 0v7m21-7v7m0 0h-21m21 0v14m-21-14v14m0 0h21m-21 0v7m21-7v7m0 0h-21m21 0v14m-21-14v14m0 0h21m-21 0v7m21-7v7m0 0h-21m39-84V40m0-26.5h5m0 0V40m0-26.5h16m0 0V40m0-26.5h5m0 0V40m0-26.5h16m0 0V70m0-56.5h5m0 0V70"/>
    <circle cx="50" cy="48" r="7.5" stroke="currentColor" stroke-width="3"/>
    <circle cx="71" cy="48" r="7.5" stroke="currentColor" stroke-width="3"/>
    <circle cx="92" cy="78" r="7.5" stroke="currentColor" stroke-width="3"/>
  </svg>

  <svg id="weightlifting"
    viewBox="0 0 112 94" fill="none">
    <path fill="var(--color-gray-lightest)" d="M78 62a10 10 0 1 0-9.93-8.8c3.05.83 5.4 4 5.85 7.93 1.25.56 2.63.87 4.08.87ZM15 48c-6 10.4-2.17 20 .5 23.5L9 70l-3.5-3.5-2-5-1.5-8 1.5-7 5-9 7-5.5 7-1 9.5 4c-3.17 0-11 2.6-17 13ZM65 31.5 59.5 36l-6-10-2-7.5 2-6.5L56 6.5l5-3L66.5 2H89l7 1.5 5.5 3.5 3 8 .5 6.5-4 8.5-4 7-6-5 4.5-8.5 1.5-4v-3l-1-3-2.5-3L89 9H67.5l-6 2-2 4.5v4l5.5 12Z"/>
    <path fill="var(--color-gray-lightest)" d="m43 79.5 2 8 5.5 4.5 8-1 5.5-3 5.5-5.5 3-5.5 1-10.5-1-7.5-3-4-5-2-5.5 1-6.5 3.5-4 4-4 9-1.5 9Z"/>
    <path stroke="currentColor" stroke-linecap="round" stroke-linejoin="round" stroke-width="3" d="M67.4 54c3.75 1.78 6.6 5.96 6.6 13 0 12.5-9 25-19.5 25-1.36 0-3.2-.33-5-1.2M67.4 54a11.46 11.46 0 0 0-9.4 0c-7 3-15 12-15 25 0 6.72 3.2 10.18 6.5 11.8M67.4 54l-12.9-5.5c-5-.83-11.02 2.14-15.5 8.35M49.5 90.8 39 86c-6.24-4.01-6.92-13.6-3.8-22m0 0a30.16 30.16 0 0 1 3.8-7.15M35.2 64 26 59c-.67-.5-2.3-2.5-.5-5.5 1.8-3 4.83-2 5.5-1.5l8 4.85m3.5-10.35c0-4.04-2.6-8.73-7.3-10.38M12.5 55c3-12 12-19.5 19-19.5 1.35 0 2.58.22 3.7.62M28.5 73.5a12.06 12.06 0 0 1-8 .93M12 61c.58 8.77 4.42 12.41 8.5 13.43m14.7-38.31L25 32c-7.5-3-16.5 2.5-21 14.5s1 21 5.5 23.5l11 4.43"/>
    <path stroke="currentColor" stroke-linecap="round" stroke-linejoin="round" stroke-width="3" d="M56.41 41.5A24 24 0 1 1 88.5 73.59H79"/>
    <path stroke="currentColor" stroke-linecap="round" stroke-linejoin="round" stroke-width="3" d="M79.5 61.89A10 10 0 1 0 69 47.64M91.5 31.88l4.8-9.98A9 9 0 0 0 88.19 9H68.3a9 9 0 0 0-7.98 13.15l4.85 9.35"/>
    <path stroke="currentColor" stroke-linecap="round" stroke-linejoin="round" stroke-width="3" d="m97.5 37.03 5.75-12.21A16 16 0 0 0 88.78 2h-20.7a16 16 0 0 0-14.25 23.25l5.67 11.16"/>
  </svg>

  <svg id="barbell"
    viewBox="0 0 90 70" fill="none">
    <path fill="var(--color-blue-light)" d="M1 31h6v13H1z"/>
    <path fill="var(--color-red)" d="M6 25h6v25H6z"/>
    <path fill="var(--color-blue-light)" d="M83 31h6v13h-6z"/>
    <path fill="var(--color-red)" d="M78 25h6v25h-6z"/>
    <path fill="var(--color-gray-light)" d="M14 8h62v9H14z"/>
    <path fill="currentColor" fill-rule="evenodd" d="M19.5 0c-.8 0-1.5.7-1.5 1.5V7h-4.5c-.8 0-1.5.7-1.5 1.5V9H3.5a3.5 3.5 0 1 0 0 7H12v.5c0 .8.7 1.5 1.5 1.5H18v15h-4v-5.5a4.5 4.5 0 1 0-9 0v1.6A4 4 0 0 0 0 33v9a4 4 0 0 0 5 3.9v1.6a4.5 4.5 0 1 0 9 0V42h4v18.9L11.9 67H1.5a1.5 1.5 0 0 0 0 3h87a1.5 1.5 0 0 0 0-3H78.1L72 60.9V42h4v5.5a4.5 4.5 0 1 0 9 0v-1.6a4 4 0 0 0 5-3.9v-9a4 4 0 0 0-5-3.9v-1.6a4.5 4.5 0 1 0-9 0V33h-4V18h4.5c.8 0 1.5-.7 1.5-1.5V16h8.5a3.5 3.5 0 1 0 0-7H78v-.5c0-.8-.7-1.5-1.5-1.5H72V1.5c0-.8-.7-1.5-1.5-1.5h-7c-.8 0-1.5.7-1.5 1.5V7H28V1.5c0-.8-.7-1.5-1.5-1.5h-7ZM85 33v9a1 1 0 1 0 2 0v-9a1 1 0 1 0-2 0Zm-3-5.5a1.5 1.5 0 0 0-3 0v20a1.5 1.5 0 0 0 3 0v-20ZM5 42v-9a1 1 0 1 0-2 0v9a1 1 0 1 0 2 0Zm3 5.5a1.5 1.5 0 0 0 3 0v-20a1.5 1.5 0 0 0-3 0v20ZM25 7h-4V3h4v4ZM3.5 12H12v1H3.5a.5.5 0 0 1 0-1ZM75 10H15v5h60v-5Zm11.5 3H78v-1h8.5a.5.5 0 0 1 0 1ZM21 33V18h4v15h-4Zm7 0V18h34v15H28Zm37 0V18h4v15h-4Zm-51 6v-3h62v3H14Zm7 28V42h4v25h-4Zm7-6.1V42h34v18.9L55.9 67H34L28 60.9ZM65 67V42h4v25h-4Zm8.9 0H72v-1.9l1.9 1.9ZM62 65.1V67h-1.9l1.9-1.9Zm-34 0 1.9 1.9H28v-1.9Zm-10 0V67h-1.9l1.9-1.9ZM69 3v4h-4V3h4Z" clip-rule="evenodd"/>
  </svg>

  <svg id="fighting"
    viewBox="0 0 86 87" fill="none">
    <path fill="var(--color-red)" d="M43.5 32.5 20 24l4.5-11 23 8-4 11.5Z"/>
    <path fill="var(--color-blue-light)" d="m45.5 45 4-5 4.5 1h16.5l4.5-1 4.5 2.8 4 8.2v10.5l-2 4v9l-2 6.5-6.5 4.5H54.5l-8-4-3-6V51l2-6Z"/>
    <path stroke="currentColor" stroke-linecap="round" stroke-linejoin="round" stroke-width="3" d="M75.5 56H71c-2.5 0-5 2.5-5 5.5s2.5 5.5 5.5 5.5h5c1.8 0 3.5-.5 5-1.4m0 0c2.3-1.5 3-4.3 3-8.6v-3c0-8-10-15-10-15m7 26.6V74c0 6-5 11-11 11h-16c-6 0-11-5-11-11V57.5m6-18V28h13m-13 11.5v0c0 .8.7 1.5 1.5 1.5h21.5a2 2 0 0 0 2-2v0m-25 .5-1.5 2M74.5 39v-5m0 0v-6h-12m12 6h-11m-6 0h-2M20 24.5l23.5 8m-23.5-8c-2.3.3-7.7 2.9-10.5 10.5L2.7 53.5a11 11 0 0 0 6.2 14l17.3 6.9a9 9 0 0 0 11.4-4.5l5.9-12.4M20 24.5l2.6-7m20.9 15 4-11.5L36 16.7m7.5 15.8 4.5 9m0 0c-1.8 2.5-4.5 7-4.5 11.1v4.9m-20.9-40 1.9-5L36 16.8m-13.4.7L34.5 22m1.5-5.3L49.5 2l13 26m-52 24-.8 2a5 5 0 0 0 2.8 6.4l5 2.1"/>
  </svg>

  <svg id="fitness"
    viewBox="0 0 94 94" fill="none">
    <path fill="var(--color-gray-lightest)" d="m35.5 70.5-3 4 3 4h4V84l4.5 3 4.298-3v-5.5H55.5v-8h-7.202V65L44 62l-4.5 3v5.5h-4ZM69.5 70.5v8H76v5l4.5 3.5 4.5-3.5v-5h4l3-4-3.5-4H85v-5L80.5 62 76 65.5v5h-6.5Z"/>
    <path fill="var(--color-red)" d="M12 34.5 5.5 37c-1.6-6 4-14.5 7-18 0-2.5 2-6 5.5-7 3.5-7 9.5-8 15.5-7.5 5.5-4 12.5-3 17.5 0 9.6-1.6 14.333 4.333 15.5 7.5 4.4 1.2 5.5 4.167 5.5 5.5l1.5 4.5 4.5 9 1.5 5.5-7-2-3-6h-55l-2.5 6Z"/>
    <path fill="var(--color-blue-light)" d="M26.5 70.5v22h33l-4.5-6v-8h-6.5l-1 6-2.5 2h-2L39.5 83l-.5-4.5h-2.5l-4-2V73l-6-2.5ZM12.5 18.5l-6 10h71l-5.5-10H12.5Z"/>
    <path fill="currentColor" d="M25.615 42.012a1.87 1.87 0 0 1 1.867-1.867 1.87 1.87 0 0 1 1.867 1.867 1.377 1.377 0 0 0 2.754 0 4.626 4.626 0 0 0-4.621-4.621 4.626 4.626 0 0 0-4.621 4.62 1.377 1.377 0 0 0 2.754 0ZM54.614 42.012a1.87 1.87 0 0 1 1.867-1.867 1.87 1.87 0 0 1 1.868 1.867 1.377 1.377 0 0 0 2.754 0 4.626 4.626 0 0 0-4.622-4.621 4.626 4.626 0 0 0-4.62 4.62 1.377 1.377 0 0 0 2.753 0Z"/>
    <path fill="currentColor" d="m10.671 52.928.113-.002a32.665 32.665 0 0 0 4.374 8.916 1.377 1.377 0 0 0 2.26-1.573 29.89 29.89 0 0 1-4.291-9.142l-.004-.018a30.193 30.193 0 0 1 2.15-21.549h53.7c5.955 11.775 3.458 26.02-5.884 35.114a9.092 9.092 0 0 0-.944-.054h-.005a8.372 8.372 0 0 0-7.647 4.92h-4.774v-2.727c0-3.198-2.596-5.83-5.83-5.83a5.837 5.837 0 0 0-5.83 5.83v2.726h-1.845a5.073 5.073 0 0 0-4.013 1.972 30.18 30.18 0 0 1-11.393-7.182 1.377 1.377 0 0 0-1.952 1.943 32.94 32.94 0 0 0 4.834 4.003c-1.082.811-2.484 2.054-3.877 3.838-2.573 3.297-5.641 9.185-5.641 18.51 0 .76.617 1.376 1.377 1.376h46.596c4.635 0 8.406-3.77 8.406-8.406v-5.922h4.02v2.726a5.837 5.837 0 0 0 5.83 5.83 5.837 5.837 0 0 0 5.83-5.83V79.67h1.845a5.071 5.071 0 0 0 5.065-5.065 5.071 5.071 0 0 0-5.065-5.066H86.23v-2.726a5.837 5.837 0 0 0-5.83-5.83 5.837 5.837 0 0 0-5.83 5.83v2.726h-4.78a8.459 8.459 0 0 0-3.74-3.953 32.66 32.66 0 0 0 7.407-12.66l.116.002c5.411 0 9.813-4.402 9.813-9.813a9.76 9.76 0 0 0-2.043-5.983 39.379 39.379 0 0 0-2.684-9.487 39.654 39.654 0 0 0-5.494-9.215c-.057-3.115-1.853-6.513-5.88-7.66a15.193 15.193 0 0 0-6.806-6.568 15.193 15.193 0 0 0-9.372-1.247A15.195 15.195 0 0 0 42.123 0h-.003c-3.22 0-6.379 1.041-8.972 2.947-6.514-1.317-13.174 1.89-16.199 7.825-4.02 1.15-5.814 4.545-5.872 7.657a39.734 39.734 0 0 0-5.493 9.215 39.425 39.425 0 0 0-2.681 9.486 9.76 9.76 0 0 0-2.044 5.985c0 5.41 4.401 9.813 9.812 9.813ZM53.77 72.293c-.065.739-.015 1.648-.032 4.624H49.72v-4.624h4.05Zm-9.88 13.18a3.08 3.08 0 0 1-3.077-3.076V66.813a3.08 3.08 0 0 1 3.076-3.076 3.083 3.083 0 0 1 3.076 3.076v15.584a3.08 3.08 0 0 1-3.076 3.076Zm-5.831-13.18v4.624h-1.845a2.314 2.314 0 0 1-2.312-2.312 2.316 2.316 0 0 1 2.312-2.312h1.845ZM16.95 91.246c.22-6.105 1.915-11.376 4.934-15.31a18.404 18.404 0 0 1 2.986-3.089v18.399h-7.92Zm10.674-18.672a34.358 34.358 0 0 0 3.55 1.499c-.316 2.982 2.032 5.598 5.039 5.598h1.845v2.726a5.837 5.837 0 0 0 5.83 5.83c3.181 0 5.83-2.585 5.83-5.83V79.67h4.019v5.923a8.395 8.395 0 0 0 2.189 5.653H27.625V72.574Zm60.451-.28a2.314 2.314 0 0 1 2.312 2.311 2.314 2.314 0 0 1-2.312 2.312h-1.845v-4.624h1.845Zm-10.752-5.48a3.08 3.08 0 0 1 3.076-3.077 3.08 3.08 0 0 1 3.077 3.076v15.584a3.08 3.08 0 0 1-3.077 3.076 3.08 3.08 0 0 1-3.076-3.076V66.813Zm-6.804 5.48h4.05v4.623h-4.019c-.017-3.114.033-3.888-.031-4.624Zm-2.723.726v12.573a5.66 5.66 0 0 1-5.652 5.653H62.132a5.662 5.662 0 0 1-5.64-5.652V73.027c0-3.236 2.719-5.805 5.938-5.645 2.97.15 5.363 2.61 5.367 5.638ZM6.251 34.353a36.593 36.593 0 0 1 1.524-4.793h4.443a34.923 34.923 0 0 0-1.43 3.743 9.846 9.846 0 0 0-4.537 1.05Zm-2.638 8.762c0-3.639 2.778-6.7 6.438-7.03a33.13 33.13 0 0 0-.002 14.062c-3.602-.316-6.436-3.35-6.436-7.032Zm74.382-8.762a9.939 9.939 0 0 0-4.538-1.05 34.647 34.647 0 0 0-1.43-3.743h4.443a36.555 36.555 0 0 1 1.525 4.793Zm-3.798 15.794c1.031-4.723.98-9.56-.003-14.061 3.725.335 6.44 3.459 6.44 7.03 0 3.681-2.836 6.715-6.437 7.03ZM13.118 20.286h39.197a1.377 1.377 0 0 0 0-2.754H13.917c.316-1.795 1.501-3.577 4.096-4.192.099-.024.163-.037.196-.045.77-.172.992-.884 1.026-.93 2.457-5.222 8.306-7.997 13.906-6.597.42.104.87 0 1.206-.27a12.43 12.43 0 0 1 7.773-2.744h.003c2.817 0 5.577.973 7.782 2.75.33.266.765.365 1.178.269 2.747-.64 5.659-.318 8.2.909a12.416 12.416 0 0 1 5.803 5.843c.309.673.957.767.975.775 2.492.552 3.898 2.139 4.265 4.232H57.823a1.377 1.377 0 0 0 0 2.753h13.302a36.945 36.945 0 0 1 4.122 6.521H8.998a36.962 36.962 0 0 1 4.12-6.52Z"/>
  </svg>

  <svg id="catalog"
    viewBox="0 0 81 66" fill="none">
    <path fill="var(--color-blue-light)" fill-rule="evenodd" d="M72 28H40v27h32V28Zm-8 7H49v8h15v-8Z" clip-rule="evenodd"/>
    <path fill="var(--color-gray-lightest)" d="M2 55h77v9H2z"/>
    <path fill="var(--color-red)" d="M17 34h15v10H17zM35 2h11v12l-5.5-3-5.5 3V2Z"/>
    <rect width="77" height="9" x="2" y="55" stroke="currentColor" stroke-linejoin="round" stroke-width="2" rx="2"/>
    <rect width="32" height="27" x="8" y="28" stroke="currentColor" stroke-linejoin="round" stroke-width="2" rx="2"/>
    <rect width="32" height="27" x="40" y="28" stroke="currentColor" stroke-linejoin="round" stroke-width="2" rx="2"/>
    <rect width="32" height="26" x="24" y="2" stroke="currentColor" stroke-linejoin="round" stroke-width="2" rx="2"/>
    <rect width="15" height="8" x="17" y="35" stroke="currentColor" stroke-linejoin="round" stroke-width="2" rx="2"/>
    <rect width="15" height="8" x="49" y="35" stroke="currentColor" stroke-linejoin="round" stroke-width="2" rx="2"/>
    <path stroke="currentColor" stroke-linecap="round" stroke-linejoin="round" stroke-width="2" d="M35 7v7l5.5-3 5.5 3V7"/>
  </svg>
</svg>
