<svg xmlns="http://www.w3.org/2000/svg" width="114" height="114" fill="none"><g clip-path="url(#a)"><path fill="#DEDFE7" d="M36 6h70v8H36z"/><path fill="#4788FF" d="M29 1h8v112h-8V1ZM1 1h8v112H1V1Z"/><path fill="#F04716" d="M105 1h7.5v111H105V1Z"/><path stroke="#36383F" stroke-linecap="round" stroke-linejoin="round" stroke-width="3" d="M105.5 6.5v-5h7v18m-7-13h-69m69 0v7m-69-7v-5h-7v5m7 0v7m0 0v99h-7v-15m7-84h11m58 0v99h7v-77m-7-22h-11m-65 0v-7m0 7h-3.3m3.3 0v14m-21-14v-7m0 7H18m-9.5 0v14m0-21v-5h-7v111h7v-15m0-91h21m83 21.3v-2.2m-83 1.9h-21m21 0v7m-21-7v7m0 0h21m-21 0v14m21-14v14m-21 0h21m-21 0v7m21-7v7m0 0h-21m21 0v14m-21-14v14m0 0h21m-21 0v7m21-7v7m0 0h-21m21 0v14m-21-14v14m0 0h21m-21 0v7m21-7v7m0 0h-21m39-84V40m0-26.5h5m0 0V40m0-26.5h16m0 0V40m0-26.5h5m0 0V40m0-26.5h16m0 0V70m0-56.5h5m0 0V70"/><circle cx="50" cy="48" r="7.5" stroke="#36383F" stroke-width="3"/><circle cx="71" cy="48" r="7.5" stroke="#36383F" stroke-width="3"/><circle cx="92" cy="78" r="7.5" stroke="#36383F" stroke-width="3"/></g><defs><clipPath id="a"><path fill="#fff" d="M0 0h114v114H0z"/></clipPath></defs></svg>