<svg xmlns="http://www.w3.org/2000/svg" width="114" height="114" fill="none"><g clip-path="url(#a)"><path fill="#DEDFE7" d="M60.56 16.43V9.31h44.76v7.12H60.56Z"/><path fill="#4788FF" d="M1.56 1.56h7.12v110.88H1.56V1.56Z"/><path fill="#F04716" d="M53.44 1.56h7.12v110.88h-7.12V1.56Z"/><path fill="#DEDFE7" d="M8.68 16.43V9.31h44.76v7.12H8.68ZM8.68 38.5v-7.13h44.76v7.13H8.68ZM8.68 60.56v-7.12h44.76v7.12H8.68ZM8.68 82.63V75.5h44.76v7.13H8.68ZM8.68 104.69v-7.12h44.76v7.12H8.68Z"/><path fill="#4788FF" d="M105.32 1.56h7.12v110.88h-7.12V1.56ZM82.94 31.51a12.92 12.92 0 1 0 0 25.85 12.92 12.92 0 0 0 0-25.85Zm0 18.72a5.8 5.8 0 1 1 0-11.59 5.8 5.8 0 0 1 0 11.6Z"/><path fill="#4788FF" d="M79.38 32.02v7.85a5.76 5.76 0 0 1 7.12 0v-7.85c-2.32-.68-4.8-.68-7.12 0Z"/><path fill="#A3A6B2" d="M82.94 31.51c1.2 0 2.4.18 3.56.51V9.32h-7.12v22.7c1.15-.33 2.35-.5 3.56-.5Z"/><path fill="#36383F" d="M22.49 40.06h1.22a1.56 1.56 0 1 0 0-3.12H22.5a1.56 1.56 0 1 0 0 3.12Z"/><path fill="#36383F" d="M112.44 27.32a1.56 1.56 0 0 0 1.56-1.56V1.56A1.56 1.56 0 0 0 112.44 0h-7.12a1.56 1.56 0 0 0-1.56 1.56v6.19H62.12v-6.2A1.56 1.56 0 0 0 60.56 0h-7.12a1.56 1.56 0 0 0-1.56 1.56v6.19H10.24v-6.2A1.56 1.56 0 0 0 8.68 0H1.56A1.56 1.56 0 0 0 0 1.56v110.88A1.56 1.56 0 0 0 1.56 114h7.12a1.56 1.56 0 0 0 1.56-1.56v-6.19h41.64v6.2a1.56 1.56 0 0 0 1.56 1.55h7.12a1.57 1.57 0 0 0 1.56-1.56V18h15.7V30.9a14.48 14.48 0 1 0 10.24 0V18h15.7v94.44a1.57 1.57 0 0 0 1.56 1.56h7.12a1.57 1.57 0 0 0 1.56-1.56V36.63a1.56 1.56 0 1 0-3.12 0v74.25h-4V3.12h4v22.64a1.57 1.57 0 0 0 1.56 1.56Zm-27.5-16.45v4h-4v-4h4ZM51.88 36.94h-20.6a1.56 1.56 0 1 0 0 3.12h20.6v11.82H10.24V40.06h4.68a1.56 1.56 0 0 0 0-3.12h-4.68v-4h41.64v4Zm0 22.06H10.24v-4h41.64v4Zm-41.64 3.12h41.64v11.82H10.24V62.12Zm0 14.94h41.64v4H10.24v-4Zm41.64-47.24H10.24V17.99h41.64v11.83ZM10.24 84.18h41.64v11.83H10.24V84.18Zm41.64-73.31v4H10.24v-4h41.64ZM7.12 110.88h-4V3.12h4v107.76Zm3.12-7.75v-4h41.64v4H10.24ZM59 110.88h-4V3.12h4v107.76Zm3.12-96v-4.01h15.7v4h-15.7Zm18.3 26.16a4.18 4.18 0 0 1 1.1-.58l.16-.05c.82-.25 1.7-.25 2.52 0l.16.05a4.18 4.18 0 0 1 1.1.58 4.24 4.24 0 1 1-5.04 0Zm4.37-3.71c-.22-.06-.45-.11-.68-.15l-.26-.04a6.7 6.7 0 0 0-1.82 0l-.26.04c-.23.04-.46.1-.68.15l-.15.03v-4.1l.14-.03.12-.01.5-.07.29-.03c.26-.03.52-.04.78-.04h.34c.26 0 .52.01.78.04.1 0 .2.02.29.03l.5.07.12.01.14.03v4.1l-.15-.03Zm9.52 7.1A11.37 11.37 0 1 1 77.8 34.3v4.87a7.36 7.36 0 1 0 10.25 0V34.3a11.37 11.37 0 0 1 6.24 10.14ZM84.94 30.1l-.25-.03a12.36 12.36 0 0 0-1.75-.12 13.96 13.96 0 0 0-1.75.12l-.25.03V18h4v12.1Zm3.12-15.22v-4.01h15.7v4h-15.7Z"/></g><defs><clipPath id="a"><path fill="#fff" d="M0 0h114v114H0z"/></clipPath></defs></svg>