<svg xmlns="http://www.w3.org/2000/svg" width="112" height="94" fill="none"><path fill="#fff" d="M78 62a10 10 0 1 0-9.93-8.8c3.05.83 5.4 4 5.85 7.93 1.25.56 2.63.87 4.08.87ZM15 48c-6 10.4-2.17 20 .5 23.5L9 70l-3.5-3.5-2-5-1.5-8 1.5-7 5-9 7-5.5 7-1 9.5 4c-3.17 0-11 2.6-17 13ZM65 31.5 59.5 36l-6-10-2-7.5 2-6.5L56 6.5l5-3L66.5 2H89l7 1.5 5.5 3.5 3 8 .5 6.5-4 8.5-4 7-6-5 4.5-8.5 1.5-4v-3l-1-3-2.5-3L89 9H67.5l-6 2-2 4.5v4l5.5 12Z"/><path fill="#fff" d="m43 79.5 2 8 5.5 4.5 8-1 5.5-3 5.5-5.5 3-5.5 1-10.5-1-7.5-3-4-5-2-5.5 1-6.5 3.5-4 4-4 9-1.5 9Z"/><path stroke="#36383F" stroke-linecap="round" stroke-linejoin="round" stroke-width="3" d="M67.4 54c3.75 1.78 6.6 5.96 6.6 13 0 12.5-9 25-19.5 25-1.36 0-3.2-.33-5-1.2M67.4 54a11.46 11.46 0 0 0-9.4 0c-7 3-15 12-15 25 0 6.72 3.2 10.18 6.5 11.8M67.4 54l-12.9-5.5c-5-.83-11.02 2.14-15.5 8.35M49.5 90.8 39 86c-6.24-4.01-6.92-13.6-3.8-22m0 0a30.16 30.16 0 0 1 3.8-7.15M35.2 64 26 59c-.67-.5-2.3-2.5-.5-5.5 1.8-3 4.83-2 5.5-1.5l8 4.85m3.5-10.35c0-4.04-2.6-8.73-7.3-10.38M12.5 55c3-12 12-19.5 19-19.5 1.35 0 2.58.22 3.7.62M28.5 73.5a12.06 12.06 0 0 1-8 .93M12 61c.58 8.77 4.42 12.41 8.5 13.43m14.7-38.31L25 32c-7.5-3-16.5 2.5-21 14.5s1 21 5.5 23.5l11 4.43"/><path stroke="#36383F" stroke-linecap="round" stroke-linejoin="round" stroke-width="3" d="M56.41 41.5A24 24 0 1 1 88.5 73.59H79"/><path stroke="#36383F" stroke-linecap="round" stroke-linejoin="round" stroke-width="3" d="M79.5 61.89A10 10 0 1 0 69 47.64M91.5 31.88l4.8-9.98A9 9 0 0 0 88.19 9H68.3a9 9 0 0 0-7.98 13.15l4.85 9.35"/><path stroke="#36383F" stroke-linecap="round" stroke-linejoin="round" stroke-width="3" d="m97.5 37.03 5.75-12.21A16 16 0 0 0 88.78 2h-20.7a16 16 0 0 0-14.25 23.25l5.67 11.16"/></svg>