<svg xmlns="http://www.w3.org/2000/svg" width="64" height="64" fill="none"><path fill="#0A4ECB" fill-rule="evenodd" d="M5 22v20c0 3.6 2 7 5 8.7l17.4 10a10 10 0 0 0 10 0l17.5-10A10 10 0 0 0 60 42V22c0-3.6-2-7-5-8.7l-17.6-10a10 10 0 0 0-10 0L10 13.3A10 10 0 0 0 5 22Zm4.4 20V22c0-2 1-4 2.8-5l4-2.2v34.4l-4-2.2a5.7 5.7 0 0 1-2.8-5Zm15.5 12.2 4.7 2.7c1.7 1 3.9 1 5.6 0l15.8-9H24.6a2.2 2.2 0 1 1 0-4.3h30.8c.2-.5.2-1 .2-1.6V25.7h-31a2.2 2.2 0 1 1 0-4.3h31a5.7 5.7 0 0 0-2.8-4.3L35.2 7c-1.7-1-3.9-1-5.6 0l-4.7 2.7v9.8a4 4 0 1 0 0 7.9v14.4a4 4 0 1 0 0 7.8v4.5Z" class="color" clip-rule="evenodd"/></svg>