<svg width="64" height="64" viewBox="0 0 64 64" fill="none" xmlns="http://www.w3.org/2000/svg">
  <style>
    @media (prefers-color-scheme: dark) {
      .color { fill: #2c2c2c }
    }
    @media (prefers-color-scheme: light) {
      .color { fill: #2c2c2c }
    }
  </style>
  <path fill-rule="evenodd" class="color" fill="#0A4ECB" clip-rule="evenodd" d="M5 21.9598V42.0402C5 45.6287 6.92396 48.9429 10.0437 50.7287L27.4146 60.6717C30.4982 62.4367 34.2873 62.4432 37.3769 60.6887L54.9265 50.7227C58.063 48.9416 60 45.618 60 42.0173V21.9827C60 18.382 58.063 15.0583 54.9265 13.2772L37.3769 3.31131C34.2873 1.55685 30.4981 1.56332 27.4146 3.32831L10.0437 13.2713C6.92396 15.057 5 18.3713 5 21.9598ZM9.36508 42.0402V21.9598C9.36508 19.9315 10.4525 18.0582 12.2158 17.0489L16.131 14.8079V49.1921L12.2159 46.9511C10.4525 45.9418 9.36508 44.0685 9.36508 42.0402ZM24.8611 54.1892L29.5868 56.8941C31.3297 57.8917 33.4714 57.8954 35.2176 56.9037L50.9838 47.9506H24.6429C23.4375 47.9506 22.4603 46.9756 22.4603 45.773C22.4603 44.5704 23.4375 43.5955 24.6429 43.5955H55.4101C55.5574 43.0895 55.6349 42.559 55.6349 42.0173V25.7395H24.6429C23.4375 25.7395 22.4603 24.7646 22.4603 23.562C22.4603 22.3594 23.4375 21.3844 24.6429 21.3844H55.6032C55.4119 19.5846 54.3649 17.9694 52.7673 17.0622L35.2176 7.09629C33.4714 6.10463 31.3297 6.10828 29.5868 7.10588L24.8611 9.81084V19.6424C22.6914 19.6424 20.9325 21.3973 20.9325 23.562C20.9325 25.7267 22.6914 27.4816 24.8611 27.4816V41.8534C22.6914 41.8534 20.9325 43.6083 20.9325 45.773C20.9325 47.9377 22.6914 49.6926 24.8611 49.6926V54.1892Z"/>
</svg>
