<svg width="801" height="94" viewBox="0 0 801 94" fill="none" xmlns="http://www.w3.org/2000/svg">
<animateTransform
      attributeName="transform"
      attributeType="XML"
      type="translate"
      values="0,0;3000,0;"
      begin="0s"
      dur="2s"
      repeatCount="indefinite" />
<path d="M38.1565 94C30.827 94 23.7131 93.0962 16.8147 91.2885C9.91637 89.4808 4.31147 87.0705 0 84.0577L8.40736 65.206C12.4601 67.8745 17.1596 70.0266 22.5059 71.6621C27.8521 73.2976 33.1121 74.1154 38.2858 74.1154C48.116 74.1154 53.031 71.6621 53.031 66.7555C53.031 64.1731 51.6083 62.2793 48.7627 61.0742C46.0033 59.783 41.5194 58.4487 35.3109 57.0714C28.4988 55.6081 22.8077 54.0586 18.2375 52.4231C13.6673 50.7015 9.74391 47.9899 6.4672 44.2885C3.19049 40.587 1.55213 35.5943 1.55213 29.3104C1.55213 23.8013 3.06114 18.8517 6.07917 14.4615C9.09719 9.98535 13.5811 6.45605 19.5309 3.87363C25.567 1.29121 32.9396 0 41.6488 0C47.5986 0 53.4622 0.688648 59.2395 2.06594C65.0169 3.35715 70.1044 5.29396 74.5021 7.87637L66.6122 26.8571C57.9892 22.2088 49.625 19.8846 41.5194 19.8846C36.4319 19.8846 32.724 20.6593 30.3958 22.2088C28.0676 23.6722 26.9035 25.609 26.9035 28.0192C26.9035 30.4295 28.2832 32.2372 31.0426 33.4423C33.8019 34.6474 38.2427 35.8956 44.365 37.1868C51.2633 38.6502 56.9545 40.2427 61.4384 41.9643C66.0085 43.5998 69.932 46.2683 73.2087 49.9698C76.5716 53.5852 78.2531 58.5348 78.2531 64.8187C78.2531 70.2418 76.7441 75.1483 73.7261 79.5385C70.708 83.9286 66.181 87.4579 60.145 90.1264C54.1089 92.7088 46.7794 94 38.1565 94Z" fill="#F04716"/>
<path d="M136.647 1.8077C144.839 1.8077 151.953 3.18498 157.989 5.93956C164.025 8.60806 168.681 12.4817 171.958 17.5604C175.234 22.5531 176.873 28.4496 176.873 35.25C176.873 42.0504 175.234 47.9469 171.958 52.9396C168.681 57.9322 164.025 61.8059 157.989 64.5604C151.953 67.2289 144.839 68.5632 136.647 68.5632H120.867V92.1923H95.2568V1.8077H136.647ZM135.095 48.4203C140.355 48.4203 144.321 47.3013 146.994 45.0632C149.667 42.739 151.004 39.4679 151.004 35.25C151.004 31.0321 149.667 27.761 146.994 25.4368C144.321 23.1126 140.355 21.9506 135.095 21.9506H120.867V48.4203H135.095Z" fill="#F04716"/>
<path d="M241.455 94C231.883 94 223.261 91.9771 215.586 87.9313C207.998 83.8855 202.005 78.2903 197.607 71.1456C193.296 64.0009 191.14 55.9524 191.14 47C191.14 38.0476 193.296 29.9991 197.607 22.8544C202.005 15.7097 207.998 10.1145 215.586 6.06868C223.261 2.0229 231.883 0 241.455 0C251.026 0 259.606 2.0229 267.194 6.06868C274.869 10.1145 280.862 15.7097 285.173 22.8544C289.571 29.9991 291.77 38.0476 291.77 47C291.77 55.9524 289.571 64.0009 285.173 71.1456C280.862 78.2903 274.869 83.8855 267.194 87.9313C259.606 91.9771 251.026 94 241.455 94ZM241.455 72.8242C246.025 72.8242 250.164 71.7482 253.872 69.5961C257.58 67.4441 260.512 64.4313 262.667 60.5577C264.823 56.598 265.901 52.0788 265.901 47C265.901 41.9212 264.823 37.4451 262.667 33.5714C260.512 29.6117 257.58 26.5559 253.872 24.4038C250.164 22.2518 246.025 21.1758 241.455 21.1758C236.885 21.1758 232.746 22.2518 229.038 24.4038C225.33 26.5559 222.398 29.6117 220.242 33.5714C218.087 37.4451 217.009 41.9212 217.009 47C217.009 52.0788 218.087 56.598 220.242 60.5577C222.398 64.4313 225.33 67.4441 229.038 69.5961C232.746 71.7482 236.885 72.8242 241.455 72.8242Z" fill="#F04716"/>
<path d="M349.936 68.1758H335.967V92.1923H310.357V1.8077H351.747C359.939 1.8077 367.053 3.18498 373.089 5.93956C379.125 8.60806 383.781 12.4817 387.058 17.5604C390.335 22.5531 391.973 28.4496 391.973 35.25C391.973 41.7921 390.421 47.5165 387.317 52.4231C384.298 57.2436 379.944 61.0311 374.253 63.7857L393.784 92.1923H366.363L349.936 68.1758ZM366.104 35.25C366.104 31.0321 364.768 27.761 362.094 25.4368C359.421 23.1126 355.455 21.9506 350.195 21.9506H335.967V48.4203H350.195C355.455 48.4203 359.421 47.3013 362.094 45.0632C364.768 42.739 366.104 39.4679 366.104 35.25Z" fill="#F04716"/>
<path d="M429.285 22.0797H401.476V1.8077H482.574V22.0797H454.895V92.1923H429.285V22.0797Z" fill="#F04716"/>
<path d="M541.685 94C532.113 94 523.49 91.9771 515.816 87.9313C508.228 83.8855 502.235 78.2903 497.837 71.1456C493.525 64.0009 491.37 55.9524 491.37 47C491.37 38.0476 493.525 29.9991 497.837 22.8544C502.235 15.7097 508.228 10.1145 515.816 6.06868C523.49 2.0229 532.113 0 541.685 0C551.256 0 559.836 2.0229 567.424 6.06868C575.098 10.1145 581.091 15.7097 585.403 22.8544C589.8 29.9991 591.999 38.0476 591.999 47C591.999 55.9524 589.8 64.0009 585.403 71.1456C581.091 78.2903 575.098 83.8855 567.424 87.9313C559.836 91.9771 551.256 94 541.685 94ZM541.685 72.8242C546.255 72.8242 550.394 71.7482 554.102 69.5961C557.809 67.4441 560.741 64.4313 562.897 60.5577C565.053 56.598 566.13 52.0788 566.13 47C566.13 41.9212 565.053 37.4451 562.897 33.5714C560.741 29.6117 557.809 26.5559 554.102 24.4038C550.394 22.2518 546.255 21.1758 541.685 21.1758C537.114 21.1758 532.975 22.2518 529.267 24.4038C525.56 26.5559 522.628 29.6117 520.472 33.5714C518.316 37.4451 517.238 41.9212 517.238 47C517.238 52.0788 518.316 56.598 520.472 60.5577C522.628 64.4313 525.56 67.4441 529.267 69.5961C532.975 71.7482 537.114 72.8242 541.685 72.8242Z" fill="#F04716"/>
<path d="M699.263 1.8077L660.46 92.1923H635.238L596.564 1.8077H624.243L648.819 60.6868L673.911 1.8077H699.263Z" fill="#F04716"/>
<path d="M767.241 74.6319H728.955L721.841 92.1923H695.714L735.681 1.8077H760.903L801 92.1923H774.355L767.241 74.6319ZM759.739 55.7802L748.098 26.8571L736.457 55.7802H759.739Z" fill="#F04716"/>
</svg>
