<svg xmlns="http://www.w3.org/2000/svg" width="1000" height="750" fill="none"><path fill="#fff" d="M0 0h1000v750H0z"/><path fill="#F04716" d="M137.156 422c-7.329 0-14.443-.904-21.341-2.712-6.899-1.807-12.504-4.217-16.815-7.23l8.407-18.852c4.053 2.669 8.753 4.821 14.099 6.456 5.346 1.636 10.606 2.453 15.78 2.453 9.83 0 14.745-2.453 14.745-7.359 0-2.583-1.423-4.477-4.268-5.682-2.76-1.291-7.244-2.625-13.452-4.003-6.812-1.463-12.503-3.012-17.074-4.648-4.57-1.722-8.493-4.433-11.77-8.135-3.277-3.701-4.915-8.694-4.915-14.978 0-5.509 1.509-10.458 4.527-14.848 3.018-4.477 7.502-8.006 13.452-10.588 6.036-2.583 13.409-3.874 22.118-3.874 5.95 0 11.813.689 17.591 2.066 5.777 1.291 10.864 3.228 15.262 5.81l-7.89 18.981c-8.623-4.648-16.987-6.972-25.093-6.972-5.087 0-8.795.774-11.123 2.324-2.328 1.463-3.492 3.4-3.492 5.81 0 2.41 1.379 4.218 4.139 5.423 2.759 1.205 7.2 2.454 13.322 3.745 6.898 1.463 12.589 3.056 17.073 4.777 4.571 1.636 8.494 4.304 11.771 8.006 3.363 3.615 5.044 8.565 5.044 14.849 0 5.423-1.509 10.329-4.527 14.719-3.018 4.391-7.545 7.92-13.581 10.588-6.036 2.583-13.366 3.874-21.989 3.874ZM235.647 329.808c8.192 0 15.306 1.377 21.342 4.132 6.036 2.668 10.692 6.542 13.969 11.62 3.276 4.993 4.915 10.89 4.915 17.69 0 6.8-1.639 12.697-4.915 17.69-3.277 4.992-7.933 8.866-13.969 11.62-6.036 2.669-13.15 4.003-21.342 4.003h-15.78v23.629h-25.61v-90.384h41.39Zm-1.552 46.612c5.26 0 9.226-1.119 11.899-3.357 2.673-2.324 4.01-5.595 4.01-9.813 0-4.218-1.337-7.489-4.01-9.813-2.673-2.324-6.639-3.486-11.899-3.486h-14.228v26.469h14.228ZM340.455 422c-9.572 0-18.194-2.023-25.869-6.069-7.588-4.045-13.581-9.641-17.979-16.785-4.311-7.145-6.467-15.194-6.467-24.146s2.156-17.001 6.467-24.146c4.398-7.144 10.391-12.74 17.979-16.785 7.675-4.046 16.297-6.069 25.869-6.069 9.571 0 18.151 2.023 25.739 6.069 7.675 4.045 13.668 9.641 17.979 16.785 4.398 7.145 6.597 15.194 6.597 24.146s-2.199 17.001-6.597 24.146c-4.311 7.144-10.304 12.74-17.979 16.785-7.588 4.046-16.168 6.069-25.739 6.069Zm0-21.176c4.57 0 8.709-1.076 12.417-3.228s6.64-5.165 8.795-9.038c2.156-3.96 3.234-8.479 3.234-13.558 0-5.079-1.078-9.555-3.234-13.429-2.155-3.959-5.087-7.015-8.795-9.167s-7.847-3.228-12.417-3.228c-4.57 0-8.709 1.076-12.417 3.228s-6.64 5.208-8.796 9.167c-2.155 3.874-3.233 8.35-3.233 13.429 0 5.079 1.078 9.598 3.233 13.558 2.156 3.873 5.088 6.886 8.796 9.038 3.708 2.152 7.847 3.228 12.417 3.228ZM448.936 396.176h-13.969v24.016h-25.61v-90.384h41.39c8.192 0 15.306 1.377 21.342 4.132 6.036 2.668 10.692 6.542 13.969 11.62 3.277 4.993 4.915 10.89 4.915 17.69 0 6.542-1.552 12.266-4.656 17.173-3.019 4.821-7.373 8.608-13.064 11.363l19.531 28.406h-27.421l-16.427-24.016Zm16.168-32.926c0-4.218-1.336-7.489-4.01-9.813-2.673-2.324-6.639-3.486-11.899-3.486h-14.228v26.469h14.228c5.26 0 9.226-1.119 11.899-3.357 2.674-2.324 4.01-5.595 4.01-9.813ZM528.285 350.08h-27.809v-20.272h81.098v20.272h-27.679v70.112h-25.61V350.08ZM640.685 422c-9.572 0-18.195-2.023-25.869-6.069-7.588-4.045-13.581-9.641-17.979-16.785-4.312-7.145-6.467-15.194-6.467-24.146s2.155-17.001 6.467-24.146c4.398-7.144 10.391-12.74 17.979-16.785 7.674-4.046 16.297-6.069 25.869-6.069 9.571 0 18.151 2.023 25.739 6.069 7.674 4.045 13.667 9.641 17.979 16.785 4.397 7.145 6.596 15.194 6.596 24.146s-2.199 17.001-6.596 24.146c-4.312 7.144-10.305 12.74-17.979 16.785-7.588 4.046-16.168 6.069-25.739 6.069Zm0-21.176c4.57 0 8.709-1.076 12.417-3.228 3.707-2.152 6.639-5.165 8.795-9.038 2.156-3.96 3.233-8.479 3.233-13.558 0-5.079-1.077-9.555-3.233-13.429-2.156-3.959-5.088-7.015-8.795-9.167-3.708-2.152-7.847-3.228-12.417-3.228-4.571 0-8.71 1.076-12.418 3.228-3.707 2.152-6.639 5.208-8.795 9.167-2.156 3.874-3.234 8.35-3.234 13.429 0 5.079 1.078 9.598 3.234 13.558 2.156 3.873 5.088 6.886 8.795 9.038 3.708 2.152 7.847 3.228 12.418 3.228ZM798.263 329.808l-38.803 90.384h-25.222l-38.674-90.384h27.679l24.576 58.879 25.092-58.879h25.352ZM866.241 402.632h-38.286l-7.114 17.56h-26.127l39.967-90.384h25.222L900 420.192h-26.645l-7.114-17.56Zm-7.502-18.852-11.641-28.923-11.641 28.923h23.282Z"/></svg>