<!-- width: 1677; logo: 511; text: 788; text-gap: 100 -->
<svg xmlns="http://www.w3.org/2000/svg" width="511" height="118" fill="none">
  <path fill="#F04716" d="M25.342 118c-4.6758 0-9.2142-.577-13.615-1.731-4.40083-1.154-7.97649-2.692-10.727-4.615l5.3635-12.0331c2.58548 1.7031 5.5835 3.0771 8.9942 4.1211 3.4106 1.044 6.7662 1.566 10.0668 1.566 6.2712 0 9.4068-1.566 9.4068-4.698 0-1.6485-.9077-2.8573-2.723-3.6265-1.7603-.8242-4.6209-1.6758-8.5816-2.5549-4.3458-.9341-7.9765-1.9231-10.892-2.9671-2.91558-1.0989-5.41855-2.8296-7.50893-5.1923-2.09039-2.3626-3.13559-5.5494-3.13559-9.5604 0-3.5165.96268-6.6758 2.88804-9.478 1.92536-2.8572 4.78589-5.1099 8.58158-6.7583C17.3105 58.8242 22.0139 58 27.5699 58c3.7957 0 7.5364.4396 11.2221 1.3187 3.6857.8242 6.9313 2.0604 9.7368 3.7088l-5.0334 12.1154c-5.501-2.9671-10.837-4.4506-16.008-4.4506-3.2456 0-5.611.4945-7.0963 1.4835-1.4853.9341-2.2279 2.1704-2.2279 3.7088 0 1.5385.8802 2.6923 2.6405 3.4616 1.7603.7692 4.5933 1.5659 8.4991 2.3901 4.4008.934 8.0314 1.9505 10.892 3.0494 2.9155 1.044 5.4185 2.7473 7.5089 5.1099 2.1454 2.3077 3.2181 5.467 3.2181 9.478 0 3.4614-.9627 6.5934-2.8881 9.3954-1.9253 2.802-4.8134 5.055-8.6641 6.758C35.5189 117.176 30.843 118 25.342 118ZM88.1742 59.1538c5.226 0 9.7643.8792 13.6148 2.6374 3.851 1.7033 6.822 4.1758 8.912 7.4176 2.09 3.1868 3.135 6.9505 3.135 11.2912s-1.045 8.1044-3.135 11.2912-5.061 5.6593-8.912 7.4176c-3.8505 1.7032-8.3888 2.5552-13.6148 2.5552H78.1073v15.082h-16.338V59.1538h26.4049Zm-.9902 29.7528c3.3557 0 5.8861-.7143 7.5914-2.1429 1.7054-1.4835 2.558-3.5714 2.558-6.2637s-.8526-4.7802-2.558-6.2637c-1.7053-1.4836-4.2357-2.2253-7.5914-2.2253h-9.0767v16.8956h9.0767ZM155.037 118c-6.106 0-11.607-1.291-16.503-3.874-4.841-2.582-8.664-6.153-11.47-10.714-2.75-4.5604-4.126-9.6977-4.126-15.412 0-5.7143 1.376-10.8516 4.126-15.4121 2.806-4.5604 6.629-8.1319 11.47-10.7143C143.43 59.2912 148.931 58 155.037 58s11.579 1.2912 16.42 3.8736c4.896 2.5824 8.719 6.1539 11.47 10.7143 2.805 4.5605 4.208 9.6978 4.208 15.4121s-1.403 10.8516-4.208 15.412c-2.751 4.561-6.574 8.132-11.47 10.714-4.841 2.583-10.314 3.874-16.42 3.874Zm0-13.516c2.915 0 5.556-.687 7.921-2.061 2.366-1.374 4.236-3.2966 5.611-5.7692 1.376-2.5274 2.063-5.412 2.063-8.6538 0-3.2418-.687-6.0989-2.063-8.5714-1.375-2.5275-3.245-4.478-5.611-5.8517-2.365-1.3736-5.006-2.0604-7.921-2.0604-2.916 0-5.556.6868-7.922 2.0604-2.365 1.3737-4.235 3.3242-5.611 5.8517-1.375 2.4725-2.063 5.3296-2.063 8.5714 0 3.2418.688 6.1264 2.063 8.6538 1.376 2.4726 3.246 4.3952 5.611 5.7692 2.366 1.374 5.006 2.061 7.922 2.061ZM224.243 101.516h-8.912v15.33h-16.338V59.1538h26.405c5.226 0 9.764.8792 13.615 2.6374 3.851 1.7033 6.821 4.1758 8.912 7.4176 2.09 3.1868 3.135 6.9505 3.135 11.2912 0 4.1758-.99 7.8297-2.97 10.9615-1.926 3.077-4.704 5.4945-8.334 7.2528l12.459 18.1317h-17.493l-10.479-15.33ZM234.557 80.5c0-2.6923-.853-4.7802-2.558-6.2637-1.705-1.4836-4.236-2.2253-7.591-2.2253h-9.077v16.8956h9.077c3.355 0 5.886-.7143 7.591-2.1429 1.705-1.4835 2.558-3.5714 2.558-6.2637ZM274.863 72.0934h-17.741V59.1538h51.738v12.9396h-17.659v44.7526h-16.338V72.0934ZM346.569 118c-6.106 0-11.607-1.291-16.503-3.874-4.841-2.582-8.664-6.153-11.47-10.714-2.75-4.5604-4.125-9.6977-4.125-15.412 0-5.7143 1.375-10.8516 4.125-15.4121 2.806-4.5604 6.629-8.1319 11.47-10.7143C334.962 59.2912 340.463 58 346.569 58s11.58 1.2912 16.421 3.8736c4.895 2.5824 8.719 6.1539 11.469 10.7143 2.806 4.5605 4.208 9.6978 4.208 15.4121s-1.402 10.8516-4.208 15.412c-2.75 4.561-6.574 8.132-11.469 10.714-4.841 2.583-10.315 3.874-16.421 3.874Zm0-13.516c2.916 0 5.556-.687 7.921-2.061 2.366-1.374 4.236-3.2966 5.612-5.7692 1.375-2.5274 2.062-5.412 2.062-8.6538 0-3.2418-.687-6.0989-2.062-8.5714-1.376-2.5275-3.246-4.478-5.612-5.8517-2.365-1.3736-5.005-2.0604-7.921-2.0604-2.915 0-5.556.6868-7.921 2.0604-2.366 1.3737-4.236 3.3242-5.612 5.8517-1.375 2.4725-2.062 5.3296-2.062 8.5714 0 3.2418.687 6.1264 2.062 8.6538 1.376 2.4726 3.246 4.3952 5.612 5.7692 2.365 1.374 5.006 2.061 7.921 2.061ZM447.097 59.1538l-24.755 57.6922h-16.091l-24.672-57.6922h17.659l15.678 37.5825 16.008-37.5825h16.173ZM490.464 105.637h-24.425l-4.538 11.209h-16.668l25.497-57.6922h16.09L512 116.846h-16.998l-4.538-11.209Zm-4.786-12.0326-7.427-18.4615-7.426 18.4615h14.853Z"/>
  <g>
    <path fill="#3E73D6" stroke="#3E73D6" stroke-width="2" d="M14.0426 25.9649c-2.4708 0-4.70391-.5376-6.69949-1.6129-1.97183-1.0752-3.52791-2.5596-4.66824-4.453C1.55829 17.9822 1 15.8434 1 13.4825s.55829-4.48811 1.67487-6.38152C3.8152 5.1842 5.38316 3.68817 7.37874 2.6129 9.37433 1.53763 11.6075 1 14.0782 1c1.853 0 3.5635.30388 5.1315.91164 1.568.60776 2.8984 1.49603 3.9912 2.6648L21.526 6.2244c-1.9481-1.94016-4.4069-2.91024-7.3765-2.91024-1.9719 0-3.7655.44414-5.38097 1.3324-1.61548.88827-2.88648 2.10379-3.813 3.64657-.90276 1.54277-1.35414 3.27257-1.35414 5.18937 0 1.9168.45138 3.6465 1.35414 5.1893.92652 1.5428 2.19752 2.7583 3.813 3.6466 1.61547.8882 3.40907 1.3324 5.38097 1.3324 2.9934 0 5.4522-.9818 7.3765-2.9453l1.6749 1.6479c-1.0928 1.1688-2.4351 2.0688-4.0268 2.6999-1.568.6078-3.2785.9116-5.1315.9116ZM63.1774 1.21038V25.7546H60.576V3.45442H44.7895V25.7546h-2.6013V1.21038h20.9892ZM96.0759 25.9649c-2.4707 0-4.7158-.5376-6.7351-1.6129-1.9956-1.0986-3.5635-2.5946-4.7039-4.488-1.1166-1.8935-1.6748-4.0206-1.6748-6.3815s.5582-4.48811 1.6748-6.38152c1.1404-1.89341 2.7083-3.37775 4.7039-4.45301C91.3601 1.54932 93.6052 1 96.0759 1s4.6921.53763 6.6641 1.6129c1.995 1.07527 3.563 2.5713 4.704 4.48808 1.14 1.89341 1.71 4.02062 1.71 6.38152s-.57 4.4997-1.71 6.4165c-1.141 1.8934-2.709 3.3778-4.704 4.453-1.972 1.0753-4.1934 1.6129-6.6641 1.6129Zm0-2.3141c1.9718 0 3.7536-.4325 5.3451-1.2974 1.592-.8882 2.839-2.1038 3.742-3.6465.903-1.5662 1.354-3.3076 1.354-5.2244 0-1.9168-.451-3.6466-1.354-5.18937-.903-1.56615-2.15-2.78168-3.742-3.64657-1.5915-.88826-3.3733-1.3324-5.3451-1.3324-1.9718 0-3.7655.44414-5.381 1.3324-1.5917.86489-2.8508 2.08042-3.7773 3.64657-.9028 1.54277-1.3542 3.27257-1.3542 5.18937 0 1.9168.4514 3.6582 1.3542 5.2244.9265 1.5427 2.1856 2.7583 3.7773 3.6465 1.6155.8649 3.4092 1.2974 5.381 1.2974ZM138.325 1.21038c3.183 0 5.678.74801 7.483 2.24404 1.806 1.49602 2.709 3.55306 2.709 6.17111 0 2.61807-.903 4.67507-2.709 6.17107-1.805 1.4727-4.3 2.209-7.483 2.209h-6.7v7.749h-2.637V1.21038h9.337Zm-.072 14.51612c2.471 0 4.36-.5259 5.667-1.5778 1.306-1.0753 1.959-2.583 1.959-4.52317 0-1.98691-.653-3.50631-1.959-4.55821-1.307-1.07527-3.196-1.6129-5.667-1.6129h-6.628V15.7265h6.628ZM182.967 3.45442h-8.766V25.7546H171.6V3.45442h-8.767V1.21038h20.134v2.24404ZM201.138 1.21038h2.601V21.547l15.965-20.33662h2.387V25.7546h-2.601V5.45301L203.525 25.7546h-2.387V1.21038ZM258.839 13.0968c1.734.3506 3.053 1.0402 3.956 2.0687.902 1.0051 1.354 2.3259 1.354 3.9621 0 2.1272-.772 3.7635-2.317 4.9089-1.52 1.1454-3.765 1.7181-6.735 1.7181H244.05V1.21038h10.37c2.661 0 4.74.53763 6.236 1.6129 1.497 1.07527 2.246 2.62974 2.246 4.6634 0 1.37915-.357 2.54792-1.07 3.50632-.712.935-1.71 1.6363-2.993 2.1038Zm-12.187-.7714h7.626c1.924 0 3.397-.3857 4.419-1.1571 1.045-.7714 1.567-1.89341 1.567-3.36606s-.522-2.59467-1.567-3.36606c-1.022-.77138-2.495-1.15708-4.419-1.15708h-7.626v9.0463Zm8.445 11.3604c4.3 0 6.45-1.5778 6.45-4.7335 0-3.0855-2.15-4.6283-6.45-4.6283h-8.445v9.3618h8.445ZM305.13 1.21038V25.7546h-2.601V14.4292h-15.608v11.3254h-2.637V1.21038h2.637V12.1501h15.608V1.21038h2.601ZM337.533 9.97616c2.946 0 5.191.65454 6.735 1.96354 1.568 1.309 2.352 3.2258 2.352 5.7503 0 2.6415-.831 4.6518-2.494 6.0309-1.639 1.3558-4.015 2.0337-7.127 2.0337h-9.907V1.21038h2.601v8.76578h7.84Zm-.606 13.70964c2.305 0 4.051-.5025 5.239-1.5077 1.211-1.0051 1.817-2.4895 1.817-4.453 0-3.7634-2.352-5.6452-7.056-5.6452h-7.234v11.6059h7.234Zm14.005-22.47542h2.602V25.7546h-2.602V1.21038ZM393.108 23.5105v2.2441h-17.639V1.21038h17.105v2.24404h-14.468v8.73068h12.9v2.209h-12.9v9.1164h15.002ZM443.636 14.4993h-5.702v11.2553h-2.566V1.21038h2.566V12.2202h5.702l8.445-11.00982h2.851l-9.265 11.92142 9.8 12.6228h-3.029l-8.802-11.2553ZM483.966 25.9649c-2.47 0-4.716-.5376-6.735-1.6129-1.995-1.0986-3.563-2.5946-4.704-4.488-1.116-1.8935-1.675-4.0206-1.675-6.3815s.559-4.48811 1.675-6.38152c1.141-1.89341 2.709-3.37775 4.704-4.45301C479.25 1.54932 481.496 1 483.966 1c2.471 0 4.692.53763 6.664 1.6129 1.996 1.07527 3.564 2.5713 4.704 4.48808 1.14 1.89341 1.71 4.02062 1.71 6.38152s-.57 4.4997-1.71 6.4165c-1.14 1.8934-2.708 3.3778-4.704 4.453-1.972 1.0753-4.193 1.6129-6.664 1.6129Zm0-2.3141c1.972 0 3.754-.4325 5.346-1.2974 1.591-.8882 2.839-2.1038 3.741-3.6465.903-1.5662 1.354-3.3076 1.354-5.2244 0-1.9168-.451-3.6466-1.354-5.18937-.902-1.56615-2.15-2.78168-3.741-3.64657-1.592-.88826-3.374-1.3324-5.346-1.3324s-3.765.44414-5.381 1.3324c-1.591.86489-2.851 2.08042-3.777 3.64657-.903 1.54277-1.354 3.27257-1.354 5.18937 0 1.9168.451 3.6582 1.354 5.2244.926 1.5427 2.186 2.7583 3.777 3.6465 1.616.8649 3.409 1.2974 5.381 1.2974ZM542.786 1.21038V25.7546h-2.531V6.11922l-9.799 16.51468h-1.248l-9.799-16.4095v19.5302h-2.53V1.21038h2.173l10.834 18.19772 10.726-18.19772h2.174ZM585.722 1.21038V25.7546h-2.601V3.45442h-15.787V25.7546h-2.601V1.21038h20.989ZM626.862 1.21038V25.7546h-2.602V3.45442h-12.044l-.285 8.20478c-.119 3.3894-.404 6.1243-.856 8.2048-.427 2.057-1.093 3.5998-1.995 4.6283-.903 1.0051-2.103 1.5077-3.599 1.5077-.642 0-1.307-.0818-1.996-.2454l.214-2.3142c.404.0935.796.1402 1.176.1402 1.045 0 1.888-.409 2.53-1.2272.665-.8181 1.164-2.0804 1.497-3.7868.332-1.7298.558-4.0089.677-6.8373l.356-10.51892h16.927ZM666.458 23.5105v2.2441h-17.639V1.21038h17.105v2.24404h-14.468v8.73068h12.9v2.209h-12.9v9.1164h15.002ZM694.118 14.4993h-5.702v11.2553h-2.566V1.21038h2.566V12.2202h5.702l8.446-11.00982h2.85l-9.265 11.92142 9.8 12.6228h-3.029l-8.802-11.2553ZM734.413 25.9649c-2.471 0-4.704-.5376-6.699-1.6129-1.972-1.0752-3.528-2.5596-4.669-4.453-1.116-1.9168-1.675-4.0556-1.675-6.4165s.559-4.48811 1.675-6.38152c1.141-1.91678 2.708-3.41281 4.704-4.48808C729.745 1.53763 731.978 1 734.449 1c1.853 0 3.563.30388 5.131.91164 1.568.60776 2.898 1.49603 3.991 2.6648l-1.675 1.64796c-1.948-1.94016-4.406-2.91024-7.376-2.91024-1.972 0-3.766.44414-5.381 1.3324-1.616.88827-2.887 2.10379-3.813 3.64657-.903 1.54277-1.354 3.27257-1.354 5.18937 0 1.9168.451 3.6465 1.354 5.1893.926 1.5428 2.197 2.7583 3.813 3.6466 1.615.8882 3.409 1.3324 5.381 1.3324 2.993 0 5.452-.9818 7.376-2.9453l1.675 1.6479c-1.093 1.1688-2.435 2.0688-4.027 2.6999-1.568.6078-3.278.9116-5.131.9116ZM773 9.97616c2.946 0 5.191.65454 6.735 1.96354 1.568 1.309 2.352 3.2258 2.352 5.7503 0 2.6415-.832 4.6518-2.495 6.0309-1.639 1.3558-4.015 2.0337-7.127 2.0337h-9.906V1.21038h2.601v8.76578H773Zm-.606 13.70964c2.304 0 4.05-.5025 5.238-1.5077 1.212-1.0051 1.818-2.4895 1.818-4.453 0-3.7634-2.352-5.6452-7.056-5.6452h-7.234v11.6059h7.234Zm14.005-22.47542H789V25.7546h-2.601V1.21038Z"/>
    <path fill="#3E73D6" stroke="#3E73D6" stroke-width="2" d="M901.043 25.9649c-2.471 0-4.704-.5376-6.7-1.6129-1.972-1.0752-3.528-2.5596-4.668-4.453-1.117-1.9168-1.675-4.0556-1.675-6.4165s.558-4.48811 1.675-6.38152c1.14-1.91678 2.708-3.41281 4.704-4.48808C896.374 1.53763 898.607 1 901.078 1c1.853 0 3.564.30388 5.132.91164 1.568.60776 2.898 1.49603 3.991 2.6648l-1.675 1.64796c-1.948-1.94016-4.407-2.91024-7.377-2.91024-1.971 0-3.765.44414-5.38 1.3324-1.616.88827-2.887 2.10379-3.813 3.64657-.903 1.54277-1.355 3.27257-1.355 5.18937 0 1.9168.452 3.6465 1.355 5.1893.926 1.5428 2.197 2.7583 3.813 3.6466 1.615.8882 3.409 1.3324 5.38 1.3324 2.994 0 5.453-.9818 7.377-2.9453l1.675 1.6479c-1.093 1.1688-2.435 2.0688-4.027 2.6999-1.568.6078-3.278.9116-5.131.9116ZM950.177 1.21038V25.7546h-2.601V3.45442H931.79V25.7546h-2.602V1.21038h20.989ZM983.076 25.9649c-2.471 0-4.716-.5376-6.735-1.6129-1.996-1.0986-3.564-2.5946-4.704-4.488-1.117-1.8935-1.675-4.0206-1.675-6.3815s.558-4.48811 1.675-6.38152c1.14-1.89341 2.708-3.37775 4.704-4.45301C978.36 1.54932 980.605 1 983.076 1s4.692.53763 6.664 1.6129c1.995 1.07527 3.563 2.5713 4.704 4.48808 1.14 1.89341 1.71 4.02062 1.71 6.38152s-.57 4.4997-1.71 6.4165c-1.141 1.8934-2.709 3.3778-4.704 4.453-1.972 1.0753-4.193 1.6129-6.664 1.6129Zm0-2.3141c1.972 0 3.753-.4325 5.345-1.2974 1.592-.8882 2.839-2.1038 3.742-3.6465.903-1.5662 1.354-3.3076 1.354-5.2244 0-1.9168-.451-3.6466-1.354-5.18937-.903-1.56615-2.15-2.78168-3.742-3.64657-1.592-.88826-3.373-1.3324-5.345-1.3324-1.972 0-3.766.44414-5.381 1.3324-1.592.86489-2.851 2.08042-3.777 3.64657-.903 1.54277-1.355 3.27257-1.355 5.18937 0 1.9168.452 3.6582 1.355 5.2244.926 1.5427 2.185 2.7583 3.777 3.6465 1.615.8649 3.409 1.2974 5.381 1.2974ZM1025.32 1.21038c3.19 0 5.68.74801 7.49 2.24404 1.8 1.49602 2.71 3.55306 2.71 6.17111 0 2.61807-.91 4.67507-2.71 6.17107-1.81 1.4727-4.3 2.209-7.49 2.209h-6.69v7.749h-2.64V1.21038h9.33Zm-.07 14.51612c2.47 0 4.36-.5259 5.67-1.5778 1.31-1.0753 1.96-2.583 1.96-4.52317 0-1.98691-.65-3.50631-1.96-4.55821-1.31-1.07527-3.2-1.6129-5.67-1.6129h-6.62V15.7265h6.62ZM1069.97 3.45442h-8.77V25.7546h-2.6V3.45442h-8.77V1.21038h20.14v2.24404ZM1088.14 1.21038h2.6V21.547l15.96-20.33662h2.39V25.7546h-2.6V5.45301l-15.96 20.30159h-2.39V1.21038ZM1145.84 13.0968c1.73.3506 3.05 1.0402 3.95 2.0687.91 1.0051 1.36 2.3259 1.36 3.9621 0 2.1272-.77 3.7635-2.32 4.9089-1.52 1.1454-3.76 1.7181-6.73 1.7181h-11.05V1.21038h10.37c2.66 0 4.74.53763 6.24 1.6129 1.49 1.07527 2.24 2.62974 2.24 4.6634 0 1.37915-.35 2.54792-1.07 3.50632-.71.935-1.71 1.6363-2.99 2.1038Zm-12.19-.7714h7.63c1.92 0 3.39-.3857 4.42-1.1571 1.04-.7714 1.56-1.89341 1.56-3.36606s-.52-2.59467-1.56-3.36606c-1.03-.77138-2.5-1.15708-4.42-1.15708h-7.63v9.0463Zm8.45 11.3604c4.3 0 6.45-1.5778 6.45-4.7335 0-3.0855-2.15-4.6283-6.45-4.6283h-8.45v9.3618h8.45ZM1192.13 1.21038V25.7546h-2.6V14.4292h-15.61v11.3254h-2.64V1.21038h2.64V12.1501h15.61V1.21038h2.6ZM1224.53 9.97616c2.95 0 5.19.65454 6.74 1.96354 1.57 1.309 2.35 3.2258 2.35 5.7503 0 2.6415-.83 4.6518-2.49 6.0309-1.64 1.3558-4.02 2.0337-7.13 2.0337h-9.91V1.21038h2.6v8.76578h7.84Zm-.6 13.70964c2.3 0 4.05-.5025 5.24-1.5077 1.21-1.0051 1.81-2.4895 1.81-4.453 0-3.7634-2.35-5.6452-7.05-5.6452h-7.24v11.6059h7.24Zm14-22.47542h2.6V25.7546h-2.6V1.21038ZM1280.11 23.5105v2.2441h-17.64V1.21038h17.1v2.24404h-14.46v8.73068h12.9v2.209h-12.9v9.1164h15ZM1330.64 14.4993h-5.71v11.2553h-2.56V1.21038h2.56V12.2202h5.71l8.44-11.00982h2.85l-9.26 11.92142 9.8 12.6228h-3.03l-8.8-11.2553ZM1370.97 25.9649c-2.47 0-4.72-.5376-6.74-1.6129-1.99-1.0986-3.56-2.5946-4.7-4.488-1.12-1.8935-1.68-4.0206-1.68-6.3815s.56-4.48811 1.68-6.38152c1.14-1.89341 2.71-3.37775 4.7-4.45301C1366.25 1.54932 1368.5 1 1370.97 1c2.47 0 4.69.53763 6.66 1.6129 2 1.07527 3.56 2.5713 4.7 4.48808 1.14 1.89341 1.71 4.02062 1.71 6.38152s-.57 4.4997-1.71 6.4165c-1.14 1.8934-2.7 3.3778-4.7 4.453-1.97 1.0753-4.19 1.6129-6.66 1.6129Zm0-2.3141c1.97 0 3.75-.4325 5.34-1.2974 1.59-.8882 2.84-2.1038 3.74-3.6465.91-1.5662 1.36-3.3076 1.36-5.2244 0-1.9168-.45-3.6466-1.36-5.18937-.9-1.56615-2.15-2.78168-3.74-3.64657-1.59-.88826-3.37-1.3324-5.34-1.3324-1.98 0-3.77.44414-5.38 1.3324-1.6.86489-2.86 2.08042-3.78 3.64657-.9 1.54277-1.36 3.27257-1.36 5.18937 0 1.9168.46 3.6582 1.36 5.2244.92 1.5427 2.18 2.7583 3.78 3.6465 1.61.8649 3.4 1.2974 5.38 1.2974ZM1429.79 1.21038V25.7546h-2.53V6.11922l-9.8 16.51468h-1.25l-9.8-16.4095v19.5302h-2.53V1.21038h2.17l10.84 18.19772 10.72-18.19772h2.18ZM1472.72 1.21038V25.7546h-2.6V3.45442h-15.79V25.7546h-2.6V1.21038h20.99ZM1513.86 1.21038V25.7546h-2.6V3.45442h-12.04l-.29 8.20478c-.12 3.3894-.4 6.1243-.85 8.2048-.43 2.057-1.1 3.5998-2 4.6283-.9 1.0051-2.1 1.5077-3.6 1.5077-.64 0-1.31-.0818-1.99-.2454l.21-2.3142c.4.0935.79.1402 1.17.1402 1.05 0 1.89-.409 2.53-1.2272.67-.8181 1.17-2.0804 1.5-3.7868.33-1.7298.56-4.0089.68-6.8373l.35-10.51892h16.93ZM1553.46 23.5105v2.2441h-17.64V1.21038h17.1v2.24404h-14.46v8.73068h12.9v2.209h-12.9v9.1164h15ZM1581.12 14.4993h-5.7v11.2553h-2.57V1.21038h2.57V12.2202h5.7l8.44-11.00982h2.85l-9.26 11.92142 9.8 12.6228h-3.03l-8.8-11.2553ZM1621.41 25.9649c-2.47 0-4.7-.5376-6.7-1.6129-1.97-1.0752-3.52-2.5596-4.66-4.453-1.12-1.9168-1.68-4.0556-1.68-6.4165s.56-4.48811 1.68-6.38152c1.14-1.91678 2.7-3.41281 4.7-4.48808 1.99-1.07527 4.23-1.6129 6.7-1.6129 1.85 0 3.56.30388 5.13.91164 1.57.60776 2.9 1.49603 3.99 2.6648l-1.67 1.64796c-1.95-1.94016-4.41-2.91024-7.38-2.91024-1.97 0-3.77.44414-5.38 1.3324-1.62.88827-2.89 2.10379-3.81 3.64657-.91 1.54277-1.36 3.27257-1.36 5.18937 0 1.9168.45 3.6465 1.36 5.1893.92 1.5428 2.19 2.7583 3.81 3.6466 1.61.8882 3.41 1.3324 5.38 1.3324 2.99 0 5.45-.9818 7.38-2.9453l1.67 1.6479c-1.09 1.1688-2.43 2.0688-4.03 2.6999-1.56.6078-3.27.9116-5.13.9116ZM1660 9.97616c2.95 0 5.19.65454 6.73 1.96354 1.57 1.309 2.36 3.2258 2.36 5.7503 0 2.6415-.83 4.6518-2.5 6.0309-1.64 1.3558-4.01 2.0337-7.12 2.0337h-9.91V1.21038h2.6v8.76578h7.84Zm-.61 13.70964c2.31 0 4.05-.5025 5.24-1.5077 1.21-1.0051 1.82-2.4895 1.82-4.453 0-3.7634-2.35-5.6452-7.06-5.6452h-7.23v11.6059h7.23Zm14.01-22.47542h2.6V25.7546h-2.6V1.21038Z"/>
    <animateTransform
      attributeName="transform"
      attributeType="XML"
      type="translate"
      values="100,0;-788,0;"
      begin="0s"
      dur="8s"
      repeatCount="indefinite" />
  </g>
</svg>