<svg xmlns="http://www.w3.org/2000/svg" width="511" height="60" fill="none">
  <style>
    @media (prefers-color-scheme: dark) {
      .color { fill: #1D1E22 }
    }
    @media (prefers-color-scheme: light) {
      .color { fill: #F04716 }
    }

    .color {
      transition: all 200ms ease;
    }
    .color:hover {
      .color { fill: #1D1E22 }
    }
  </style>
  <path class="color" fill="#F04716" d="M24.34 60c-4.67 0-9.21-.58-13.61-1.73-4.4-1.15-7.98-2.7-10.73-4.62l5.36-12.03a34.73 34.73 0 0 0 9 4.12 34.28 34.28 0 0 0 10.06 1.57c6.28 0 9.41-1.57 9.41-4.7 0-1.65-.9-2.86-2.72-3.63-1.76-.82-4.62-1.67-8.58-2.55a87.52 87.52 0 0 1-10.9-2.97 18.7 18.7 0 0 1-7.5-5.2C2.03 25.92.99 22.73.99 18.72c0-3.52.96-6.68 2.89-9.48 1.92-2.86 4.78-5.1 8.58-6.76C16.31.82 21.01 0 26.57 0c3.8 0 7.54.44 11.22 1.32 3.69.82 6.93 2.06 9.74 3.7L42.5 17.15C37 14.18 31.66 12.7 26.49 12.7c-3.25 0-5.61.5-7.1 1.49-1.48.93-2.23 2.17-2.23 3.7 0 1.54.88 2.7 2.64 3.47 1.76.77 4.6 1.56 8.5 2.39 4.4.93 8.03 1.95 10.9 3.05a17.98 17.98 0 0 1 7.5 5.1c2.15 2.31 3.22 5.47 3.22 9.48 0 3.47-.96 6.6-2.89 9.4-1.92 2.8-4.81 5.05-8.66 6.76C34.52 59.18 29.84 60 24.34 60ZM87.17 1.15c5.23 0 9.77.88 13.62 2.64a19.83 19.83 0 0 1 8.91 7.42c2.1 3.19 3.14 6.95 3.14 11.29 0 4.34-1.05 8.1-3.14 11.3a20.55 20.55 0 0 1-8.91 7.4c-3.85 1.71-8.39 2.56-13.62 2.56H77.11v15.09H60.77V1.15h26.4Zm-.99 29.76c3.36 0 5.89-.72 7.6-2.15 1.7-1.48 2.55-3.57 2.55-6.26 0-2.7-.85-4.78-2.55-6.26-1.71-1.49-4.24-2.23-7.6-2.23h-9.07v16.9h9.07ZM154.04 60c-6.1 0-11.61-1.3-16.5-3.87a29.5 29.5 0 0 1-11.48-10.72A29.26 29.26 0 0 1 121.94 30c0-5.71 1.37-10.85 4.12-15.41a29.5 29.5 0 0 1 11.47-10.72A34.82 34.82 0 0 1 154.03 0c6.11 0 11.59 1.3 16.43 3.87a28.77 28.77 0 0 1 11.47 10.72c2.8 4.56 4.2 9.7 4.2 15.41 0 5.71-1.4 10.85-4.2 15.41a28.77 28.77 0 0 1-11.47 10.72C165.62 58.7 160.14 60 154.04 60Zm0-13.52c2.91 0 5.55-.68 7.92-2.06a14.9 14.9 0 0 0 5.6-5.77 17.8 17.8 0 0 0 2.07-8.65c0-3.24-.69-6.1-2.06-8.57a14.75 14.75 0 0 0-5.61-5.85c-2.37-1.38-5-2.06-7.92-2.06s-5.56.68-7.92 2.06a14.77 14.77 0 0 0-5.62 5.85 17.34 17.34 0 0 0-2.06 8.57c0 3.24.69 6.13 2.06 8.65a14.91 14.91 0 0 0 5.62 5.77c2.36 1.38 5 2.06 7.92 2.06ZM223.24 43.52h-8.9v15.33h-16.35V1.15h26.4c5.23 0 9.77.88 13.62 2.64a19.84 19.84 0 0 1 8.92 7.42c2.08 3.19 3.13 6.95 3.13 11.29 0 4.18-.99 7.83-2.97 10.96a19.63 19.63 0 0 1-8.33 7.25l12.46 18.14h-17.5l-10.48-15.33Zm10.32-21.02c0-2.7-.86-4.78-2.56-6.26-1.7-1.49-4.24-2.23-7.6-2.23h-9.07v16.9h9.08c3.35 0 5.88-.72 7.59-2.15 1.7-1.48 2.56-3.57 2.56-6.26ZM273.86 14.1h-17.74V1.14h51.74V14.1H290.2v44.76h-16.34V14.09ZM345.57 60c-6.1 0-11.6-1.3-16.5-3.87A29.5 29.5 0 0 1 317.6 45.4 29.26 29.26 0 0 1 313.47 30c0-5.71 1.38-10.85 4.13-15.41a29.5 29.5 0 0 1 11.47-10.72A34.82 34.82 0 0 1 345.57 0c6.1 0 11.58 1.3 16.42 3.87a28.76 28.76 0 0 1 11.47 10.72c2.8 4.56 4.2 9.7 4.2 15.41 0 5.71-1.4 10.85-4.2 15.41a28.76 28.76 0 0 1-11.47 10.72C357.15 58.7 351.68 60 345.57 60Zm0-13.52c2.92 0 5.56-.68 7.92-2.06a14.9 14.9 0 0 0 5.61-5.77 17.81 17.81 0 0 0 2.06-8.65c0-3.24-.68-6.1-2.06-8.57a14.76 14.76 0 0 0-5.61-5.85c-2.37-1.38-5-2.06-7.92-2.06s-5.56.68-7.92 2.06a14.75 14.75 0 0 0-5.61 5.85 17.33 17.33 0 0 0-2.07 8.57c0 3.24.7 6.13 2.07 8.65a14.9 14.9 0 0 0 5.6 5.77c2.37 1.38 5.01 2.06 7.93 2.06ZM446.1 1.15l-24.76 57.7h-16.09l-24.67-57.7h17.66l15.68 37.59 16-37.59h16.18ZM489.46 47.64h-24.42l-4.54 11.2h-16.67l25.5-57.69h16.09L511 58.85h-17l-4.54-11.21Zm-4.78-12.04-7.43-18.46-7.43 18.46h14.86Z"/>
</svg>