<!-- width: 1677; logo: 511; text: 788; text-gap: 100 -->
<svg xmlns="http://www.w3.org/2000/svg" width="511" height="118" fill="none">
  <path fill="#F04716" d="M25.342 60c-4.6758 0-9.2142-.5769-13.615-1.7308C7.32617 57.1154 3.75051 55.5769 1 53.6538l5.3635-12.0329c2.58548 1.7033 5.5835 3.0769 8.9942 4.1209 3.4106 1.0439 6.7662 1.5659 10.0668 1.5659 6.2712 0 9.4068-1.5659 9.4068-4.6978 0-1.6484-.9077-2.8572-2.723-3.6264-1.7603-.8242-4.6209-1.6758-8.5816-2.5549-4.3458-.9341-7.9765-1.9231-10.892-2.9671-2.91558-1.0989-5.41855-2.8296-7.50893-5.1923-2.09039-2.3626-3.13559-5.5494-3.13559-9.5604 0-3.5165.96268-6.6758 2.88804-9.47803 1.92536-2.85714 4.78589-5.10989 8.58158-6.75824C17.3105.824177 22.0139 0 27.5699 0c3.7957 0 7.5364.439562 11.2221 1.31869 3.6857.82417 6.9313 2.06043 9.7368 3.70878L43.4954 17.1429c-5.501-2.9671-10.837-4.4506-16.008-4.4506-3.2456 0-5.611.4945-7.0963 1.4835-1.4853.9341-2.2279 2.1704-2.2279 3.7088 0 1.5385.8802 2.6923 2.6405 3.4616 1.7603.7692 4.5933 1.5659 8.4991 2.3901 4.4008.934 8.0314 1.9505 10.892 3.0494 2.9155 1.044 5.4185 2.7473 7.5089 5.1099 2.1454 2.3077 3.2181 5.467 3.2181 9.478 0 3.4616-.9627 6.5934-2.8881 9.3956-1.9253 2.8022-4.8134 5.055-8.6641 6.7583C35.5189 59.1758 30.843 60 25.342 60ZM88.1742 1.15385c5.226 0 9.7643.87912 13.6148 2.63736 3.851 1.7033 6.822 4.17582 8.912 7.41759 2.09 3.1868 3.135 6.9505 3.135 11.2912s-1.045 8.1044-3.135 11.2912-5.061 5.6593-8.912 7.4176c-3.8505 1.7033-8.3888 2.5549-13.6148 2.5549H78.1073v15.0824h-16.338V1.15385h26.4049ZM87.184 30.9066c3.3557 0 5.8861-.7143 7.5914-2.1429 1.7054-1.4835 2.558-3.5714 2.558-6.2637s-.8526-4.7802-2.558-6.2637c-1.7053-1.4836-4.2357-2.2253-7.5914-2.2253h-9.0767v16.8956h9.0767ZM155.037 60c-6.106 0-11.607-1.2912-16.503-3.8736-4.841-2.5824-8.664-6.1539-11.47-10.7143-2.75-4.5605-4.126-9.6978-4.126-15.4121s1.376-10.8516 4.126-15.4121c2.806-4.5604 6.629-8.13185 11.47-10.71427C143.43 1.29121 148.931 0 155.037 0s11.579 1.29121 16.42 3.87363c4.896 2.58242 8.719 6.15387 11.47 10.71427 2.805 4.5605 4.208 9.6978 4.208 15.4121s-1.403 10.8516-4.208 15.4121c-2.751 4.5604-6.574 8.1319-11.47 10.7143C166.616 58.7088 161.143 60 155.037 60Zm0-13.5165c2.915 0 5.556-.6868 7.921-2.0604 2.366-1.3737 4.236-3.2967 5.611-5.7693 1.376-2.5274 2.063-5.412 2.063-8.6538 0-3.2418-.687-6.0989-2.063-8.5714-1.375-2.5275-3.245-4.478-5.611-5.8517-2.365-1.3736-5.006-2.0604-7.921-2.0604-2.916 0-5.556.6868-7.922 2.0604-2.365 1.3737-4.235 3.3242-5.611 5.8517-1.375 2.4725-2.063 5.3296-2.063 8.5714 0 3.2418.688 6.1264 2.063 8.6538 1.376 2.4726 3.246 4.3956 5.611 5.7693 2.366 1.3736 5.006 2.0604 7.922 2.0604ZM224.243 43.5165h-8.912v15.3296h-16.338V1.15385h26.405c5.226 0 9.764.87912 13.615 2.63736 3.851 1.7033 6.821 4.17582 8.912 7.41759 2.09 3.1868 3.135 6.9505 3.135 11.2912 0 4.1758-.99 7.8297-2.97 10.9615-1.926 3.077-4.704 5.4945-8.334 7.2528l12.459 18.1318h-17.493l-10.479-15.3296ZM234.557 22.5c0-2.6923-.853-4.7802-2.558-6.2637-1.705-1.4836-4.236-2.2253-7.591-2.2253h-9.077v16.8956h9.077c3.355 0 5.886-.7143 7.591-2.1429 1.705-1.4835 2.558-3.5714 2.558-6.2637ZM274.863 14.0934h-17.741V1.15385h51.738V14.0934h-17.659v44.7527h-16.338V14.0934ZM346.569 60c-6.106 0-11.607-1.2912-16.503-3.8736-4.841-2.5824-8.664-6.1539-11.47-10.7143-2.75-4.5605-4.125-9.6978-4.125-15.4121s1.375-10.8516 4.125-15.4121c2.806-4.5604 6.629-8.13185 11.47-10.71427C334.962 1.29121 340.463 0 346.569 0s11.58 1.29121 16.421 3.87363c4.895 2.58242 8.719 6.15387 11.469 10.71427 2.806 4.5605 4.208 9.6978 4.208 15.4121s-1.402 10.8516-4.208 15.4121c-2.75 4.5604-6.574 8.1319-11.469 10.7143C358.149 58.7088 352.675 60 346.569 60Zm0-13.5165c2.916 0 5.556-.6868 7.921-2.0604 2.366-1.3737 4.236-3.2967 5.612-5.7693 1.375-2.5274 2.062-5.412 2.062-8.6538 0-3.2418-.687-6.0989-2.062-8.5714-1.376-2.5275-3.246-4.478-5.612-5.8517-2.365-1.3736-5.005-2.0604-7.921-2.0604-2.916 0-5.556.6868-7.921 2.0604-2.366 1.3737-4.236 3.3242-5.611 5.8517-1.376 2.4725-2.063 5.3296-2.063 8.5714 0 3.2418.687 6.1264 2.063 8.6538 1.375 2.4726 3.245 4.3956 5.611 5.7693 2.365 1.3736 5.005 2.0604 7.921 2.0604ZM447.097 1.15385 422.342 58.8461h-16.091L381.579 1.15385h17.659l15.678 37.58245 16.008-37.58245h16.173ZM490.464 47.6374h-24.425l-4.538 11.2087h-16.668L470.33 1.15385h16.09L512 58.8461h-16.998l-4.538-11.2087Zm-4.786-12.033-7.427-18.4615-7.426 18.4615h14.853Z"/>
  <g>
    <path fill="#3E73D6" stroke="#3E73D6" stroke-width="2" d="M14.0426 116.965c-2.4708 0-4.70391-.538-6.69949-1.613-1.97183-1.075-3.52791-2.56-4.66824-4.453C1.55829 108.982 1 106.843 1 104.482c0-2.36.55829-4.4876 1.67487-6.381 1.14033-1.9168 2.70829-3.4128 4.70387-4.4881C9.37433 92.5376 11.6075 92 14.0782 92c1.853 0 3.5635.3039 5.1315.9116 1.568.6078 2.8984 1.4961 3.9912 2.6648l-1.6749 1.648c-1.9481-1.9402-4.4069-2.9102-7.3765-2.9102-1.9719 0-3.7655.4441-5.38097 1.3324-1.61548.8882-2.88647 2.1038-3.813 3.6465-.90276 1.5429-1.35414 3.2729-1.35414 5.1889 0 1.917.45138 3.647 1.35414 5.19.92653 1.543 2.19752 2.758 3.813 3.646 1.61547.889 3.40907 1.333 5.38097 1.333 2.9934 0 5.4522-.982 7.3765-2.946l1.6749 1.648c-1.0928 1.169-2.4351 2.069-4.0268 2.7-1.568.608-3.2785.912-5.1315.912ZM63.1774 92.2104v24.5446H60.576V94.4544H44.7895v22.3006h-2.6013V92.2104h20.9892ZM96.0759 116.965c-2.4707 0-4.7158-.538-6.7351-1.613-1.9956-1.099-3.5635-2.595-4.7039-4.488-1.1166-1.893-1.6748-4.021-1.6748-6.382 0-2.36.5582-4.4876 1.6748-6.381 1.1404-1.8934 2.7083-3.3778 4.7039-4.453C91.3601 92.5493 93.6052 92 96.0759 92s4.6921.5376 6.6641 1.6129c1.995 1.0753 3.563 2.5713 4.704 4.4881 1.14 1.8934 1.71 4.021 1.71 6.381 0 2.361-.57 4.5-1.71 6.417-1.141 1.893-2.709 3.378-4.704 4.453-1.972 1.075-4.1934 1.613-6.6641 1.613Zm0-2.314c1.9718 0 3.7536-.433 5.3451-1.298 1.592-.888 2.839-2.103 3.742-3.646.903-1.566 1.354-3.308 1.354-5.225 0-1.916-.451-3.646-1.354-5.1889-.903-1.5661-2.15-2.7816-3.742-3.6465-1.5915-.8883-3.3733-1.3324-5.3451-1.3324-1.9718 0-3.7655.4441-5.381 1.3324-1.5917.8649-2.8508 2.0804-3.7773 3.6465-.9028 1.5429-1.3542 3.2729-1.3542 5.1889 0 1.917.4514 3.659 1.3542 5.225.9265 1.543 2.1856 2.758 3.7773 3.646 1.6155.865 3.4092 1.298 5.381 1.298ZM138.325 92.2104c3.183 0 5.678.748 7.483 2.244 1.806 1.496 2.709 3.5531 2.709 6.1716 0 2.618-.903 4.675-2.709 6.171-1.805 1.472-4.3 2.209-7.483 2.209h-6.7v7.749h-2.637V92.2104h9.337Zm-.071 14.5166c2.47 0 4.359-.526 5.666-1.578 1.306-1.076 1.959-2.583 1.959-4.523 0-1.9874-.653-3.5068-1.959-4.5587-1.307-1.0752-3.196-1.6129-5.666-1.6129h-6.629v12.2726h6.629ZM182.967 94.4544h-8.766v22.3006H171.6V94.4544h-8.767v-2.244h20.134v2.244ZM201.138 92.2104h2.601v20.3366l15.965-20.3366h2.387v24.5446h-2.601V96.453l-15.965 20.302h-2.387V92.2104ZM258.839 104.097c1.734.35 3.053 1.04 3.956 2.068.902 1.006 1.354 2.326 1.354 3.963 0 2.127-.772 3.763-2.317 4.908-1.52 1.146-3.765 1.719-6.735 1.719H244.05V92.2104h10.37c2.661 0 4.74.5376 6.236 1.6129 1.497 1.0753 2.246 2.6297 2.246 4.6634 0 1.3791-.357 2.5483-1.07 3.5063-.712.935-1.71 1.636-2.993 2.104Zm-12.187-.772h7.626c1.924 0 3.397-.385 4.419-1.157 1.045-.771 1.567-1.893 1.567-3.3658 0-1.4726-.522-2.5946-1.567-3.366-1.022-.7714-2.495-1.1571-4.419-1.1571h-7.626v9.0459Zm8.445 11.361c4.3 0 6.45-1.578 6.45-4.734 0-3.085-2.15-4.628-6.45-4.628h-8.445v9.362h8.445ZM305.13 92.2104v24.5446h-2.601v-11.326h-15.608v11.326h-2.637V92.2104h2.637V103.15h15.608V92.2104h2.601ZM337.533 100.976c2.946 0 5.191.655 6.735 1.964 1.568 1.309 2.352 3.225 2.352 5.75 0 2.641-.831 4.652-2.494 6.031-1.639 1.356-4.015 2.034-7.127 2.034h-9.907V92.2104h2.601v8.7656h7.84Zm-.606 13.71c2.305 0 4.051-.503 5.239-1.508 1.211-1.005 1.817-2.489 1.817-4.453 0-3.763-2.352-5.645-7.056-5.645h-7.234v11.606h7.234Zm14.005-22.4756h2.602v24.5446h-2.602V92.2104ZM393.108 114.511v2.244h-17.639V92.2104h17.105v2.244h-14.468v8.7306h12.9v2.209h-12.9v9.117h15.002ZM443.636 105.499h-5.702v11.256h-2.566V92.2104h2.566V103.22h5.702l8.445-11.0096h2.851l-9.265 11.9216 9.8 12.623h-3.029l-8.802-11.256ZM483.966 116.965c-2.47 0-4.716-.538-6.735-1.613-1.995-1.099-3.563-2.595-4.704-4.488-1.116-1.893-1.675-4.021-1.675-6.382 0-2.36.559-4.4876 1.675-6.381 1.141-1.8934 2.709-3.3778 4.704-4.453 2.019-1.0987 4.265-1.648 6.735-1.648 2.471 0 4.692.5376 6.664 1.6129 1.996 1.0753 3.564 2.5713 4.704 4.4881 1.14 1.8934 1.71 4.021 1.71 6.381 0 2.361-.57 4.5-1.71 6.417-1.14 1.893-2.708 3.378-4.704 4.453-1.972 1.075-4.193 1.613-6.664 1.613Zm0-2.314c1.972 0 3.754-.433 5.346-1.298 1.591-.888 2.839-2.103 3.741-3.646.903-1.566 1.354-3.308 1.354-5.225 0-1.916-.451-3.646-1.354-5.1889-.902-1.5661-2.15-2.7816-3.741-3.6465-1.592-.8883-3.374-1.3324-5.346-1.3324s-3.765.4441-5.381 1.3324c-1.591.8649-2.851 2.0804-3.777 3.6465-.903 1.5429-1.354 3.2729-1.354 5.1889 0 1.917.451 3.659 1.354 5.225.926 1.543 2.186 2.758 3.777 3.646 1.616.865 3.409 1.298 5.381 1.298ZM542.786 92.2104v24.5446h-2.531V97.1192l-9.799 16.5148h-1.247l-9.8-16.4096v19.5306h-2.53V92.2104h2.173l10.834 18.1976 10.726-18.1976h2.174ZM585.722 92.2104v24.5446h-2.601V94.4544h-15.786v22.3006h-2.602V92.2104h20.989ZM626.862 92.2104v24.5446h-2.602V94.4544h-12.044l-.285 8.2046c-.119 3.39-.404 6.125-.856 8.205-.427 2.057-1.093 3.6-1.995 4.628-.903 1.005-2.103 1.508-3.599 1.508-.642 0-1.307-.082-1.996-.245l.214-2.315c.404.094.796.141 1.176.141 1.045 0 1.888-.409 2.53-1.228.665-.818 1.164-2.08 1.497-3.786.332-1.73.558-4.009.677-6.838l.356-10.5186h16.927ZM666.458 114.511v2.244h-17.639V92.2104h17.105v2.244h-14.468v8.7306h12.9v2.209h-12.9v9.117h15.002ZM694.118 105.499h-5.702v11.256h-2.566V92.2104h2.566V103.22h5.702l8.446-11.0096h2.85l-9.265 11.9216 9.8 12.623h-3.029l-8.802-11.256ZM734.413 116.965c-2.471 0-4.704-.538-6.7-1.613-1.971-1.075-3.527-2.56-4.668-4.453-1.116-1.917-1.675-4.056-1.675-6.417 0-2.36.559-4.4876 1.675-6.381 1.141-1.9168 2.709-3.4128 4.704-4.4881 1.996-1.0753 4.229-1.6129 6.7-1.6129 1.853 0 3.563.3039 5.131.9116 1.568.6078 2.898 1.4961 3.991 2.6648l-1.675 1.648c-1.948-1.9402-4.407-2.9102-7.376-2.9102-1.972 0-3.766.4441-5.381 1.3324-1.616.8882-2.887 2.1038-3.813 3.6465-.903 1.5429-1.354 3.2729-1.354 5.1889 0 1.917.451 3.647 1.354 5.19.926 1.543 2.197 2.758 3.813 3.646 1.615.889 3.409 1.333 5.381 1.333 2.993 0 5.452-.982 7.376-2.946l1.675 1.648c-1.093 1.169-2.435 2.069-4.027 2.7-1.568.608-3.278.912-5.131.912ZM773 100.976c2.946 0 5.191.655 6.735 1.964 1.568 1.309 2.352 3.225 2.352 5.75 0 2.641-.832 4.652-2.495 6.031-1.639 1.356-4.015 2.034-7.127 2.034h-9.906V92.2104h2.601v8.7656H773Zm-.606 13.71c2.304 0 4.05-.503 5.238-1.508 1.212-1.005 1.818-2.489 1.818-4.453 0-3.763-2.352-5.645-7.056-5.645h-7.234v11.606h7.234Zm14.005-22.4756H789v24.5446h-2.601V92.2104Z"/>
    <path fill="#3E73D6" stroke="#3E73D6" stroke-width="2" d="M901.043 116.965c-2.471 0-4.704-.538-6.7-1.613-1.972-1.075-3.528-2.56-4.668-4.453-1.117-1.917-1.675-4.056-1.675-6.417 0-2.36.558-4.4876 1.675-6.381 1.14-1.9168 2.708-3.4128 4.704-4.4881C896.374 92.5376 898.607 92 901.078 92c1.853 0 3.564.3039 5.132.9116 1.568.6078 2.898 1.4961 3.991 2.6648l-1.675 1.648c-1.948-1.9402-4.407-2.9102-7.377-2.9102-1.971 0-3.765.4441-5.38 1.3324-1.616.8882-2.887 2.1038-3.813 3.6465-.903 1.5429-1.355 3.2729-1.355 5.1889 0 1.917.452 3.647 1.355 5.19.926 1.543 2.197 2.758 3.813 3.646 1.615.889 3.409 1.333 5.38 1.333 2.994 0 5.453-.982 7.377-2.946l1.675 1.648c-1.093 1.169-2.435 2.069-4.027 2.7-1.568.608-3.278.912-5.131.912ZM950.177 92.2104v24.5446h-2.601V94.4544H931.79v22.3006h-2.602V92.2104h20.989ZM983.076 116.965c-2.471 0-4.716-.538-6.735-1.613-1.996-1.099-3.564-2.595-4.704-4.488-1.117-1.893-1.675-4.021-1.675-6.382 0-2.36.558-4.4876 1.675-6.381 1.14-1.8934 2.708-3.3778 4.704-4.453 2.019-1.0987 4.264-1.648 6.735-1.648s4.692.5376 6.664 1.6129c1.995 1.0753 3.563 2.5713 4.704 4.4881 1.14 1.8934 1.71 4.021 1.71 6.381 0 2.361-.57 4.5-1.71 6.417-1.141 1.893-2.709 3.378-4.704 4.453-1.972 1.075-4.193 1.613-6.664 1.613Zm0-2.314c1.972 0 3.753-.433 5.345-1.298 1.592-.888 2.839-2.103 3.742-3.646.903-1.566 1.354-3.308 1.354-5.225 0-1.916-.451-3.646-1.354-5.1889-.903-1.5661-2.15-2.7816-3.742-3.6465-1.592-.8883-3.373-1.3324-5.345-1.3324-1.972 0-3.766.4441-5.381 1.3324-1.592.8649-2.851 2.0804-3.777 3.6465-.903 1.5429-1.355 3.2729-1.355 5.1889 0 1.917.452 3.659 1.355 5.225.926 1.543 2.185 2.758 3.777 3.646 1.615.865 3.409 1.298 5.381 1.298ZM1025.32 92.2104c3.19 0 5.68.748 7.49 2.244 1.8 1.496 2.71 3.5531 2.71 6.1716 0 2.618-.91 4.675-2.71 6.171-1.81 1.472-4.3 2.209-7.49 2.209h-6.69v7.749h-2.64V92.2104h9.33Zm-.07 14.5166c2.47 0 4.36-.526 5.67-1.578 1.31-1.076 1.96-2.583 1.96-4.523 0-1.9874-.65-3.5068-1.96-4.5587-1.31-1.0752-3.2-1.6129-5.67-1.6129h-6.62v12.2726h6.62ZM1069.97 94.4544h-8.77v22.3006h-2.6V94.4544h-8.77v-2.244h20.14v2.244ZM1088.14 92.2104h2.6v20.3366l15.96-20.3366h2.39v24.5446h-2.6V96.453l-15.96 20.302h-2.39V92.2104ZM1145.84 104.097c1.73.35 3.05 1.04 3.95 2.068.91 1.006 1.36 2.326 1.36 3.963 0 2.127-.77 3.763-2.32 4.908-1.52 1.146-3.76 1.719-6.73 1.719h-11.05V92.2104h10.37c2.66 0 4.74.5376 6.24 1.6129 1.49 1.0753 2.24 2.6297 2.24 4.6634 0 1.3791-.35 2.5483-1.07 3.5063-.71.935-1.71 1.636-2.99 2.104Zm-12.19-.772h7.63c1.92 0 3.39-.385 4.42-1.157 1.04-.771 1.56-1.893 1.56-3.3658 0-1.4726-.52-2.5946-1.56-3.366-1.03-.7714-2.5-1.1571-4.42-1.1571h-7.63v9.0459Zm8.45 11.361c4.3 0 6.45-1.578 6.45-4.734 0-3.085-2.15-4.628-6.45-4.628h-8.45v9.362h8.45ZM1192.13 92.2104v24.5446h-2.6v-11.326h-15.61v11.326h-2.64V92.2104h2.64V103.15h15.61V92.2104h2.6ZM1224.53 100.976c2.95 0 5.19.655 6.74 1.964 1.57 1.309 2.35 3.225 2.35 5.75 0 2.641-.83 4.652-2.49 6.031-1.64 1.356-4.02 2.034-7.13 2.034h-9.91V92.2104h2.6v8.7656h7.84Zm-.6 13.71c2.3 0 4.05-.503 5.24-1.508 1.21-1.005 1.81-2.489 1.81-4.453 0-3.763-2.35-5.645-7.05-5.645h-7.24v11.606h7.24Zm14-22.4756h2.6v24.5446h-2.6V92.2104ZM1280.11 114.511v2.244h-17.64V92.2104h17.1v2.244h-14.46v8.7306h12.9v2.209h-12.9v9.117h15ZM1330.64 105.499h-5.71v11.256h-2.56V92.2104h2.56V103.22h5.71l8.44-11.0096h2.85l-9.26 11.9216 9.8 12.623h-3.03l-8.8-11.256ZM1370.97 116.965c-2.47 0-4.72-.538-6.74-1.613-1.99-1.099-3.56-2.595-4.7-4.488-1.12-1.893-1.68-4.021-1.68-6.382 0-2.36.56-4.4876 1.68-6.381 1.14-1.8934 2.71-3.3778 4.7-4.453 2.02-1.0987 4.27-1.648 6.74-1.648 2.47 0 4.69.5376 6.66 1.6129 2 1.0753 3.56 2.5713 4.7 4.4881 1.14 1.8934 1.71 4.021 1.71 6.381 0 2.361-.57 4.5-1.71 6.417-1.14 1.893-2.7 3.378-4.7 4.453-1.97 1.075-4.19 1.613-6.66 1.613Zm0-2.314c1.97 0 3.75-.433 5.34-1.298 1.59-.888 2.84-2.103 3.74-3.646.91-1.566 1.36-3.308 1.36-5.225 0-1.916-.45-3.646-1.36-5.1889-.9-1.5661-2.15-2.7816-3.74-3.6465-1.59-.8883-3.37-1.3324-5.34-1.3324-1.98 0-3.77.4441-5.38 1.3324-1.6.8649-2.86 2.0804-3.78 3.6465-.9 1.5429-1.36 3.2729-1.36 5.1889 0 1.917.46 3.659 1.36 5.225.92 1.543 2.18 2.758 3.78 3.646 1.61.865 3.4 1.298 5.38 1.298ZM1429.79 92.2104v24.5446h-2.53V97.1192l-9.8 16.5148h-1.25l-9.8-16.4096v19.5306h-2.53V92.2104h2.17l10.84 18.1976 10.72-18.1976h2.18ZM1472.72 92.2104v24.5446h-2.6V94.4544h-15.79v22.3006h-2.6V92.2104h20.99ZM1513.86 92.2104v24.5446h-2.6V94.4544h-12.04l-.29 8.2046c-.12 3.39-.4 6.125-.85 8.205-.43 2.057-1.1 3.6-2 4.628-.9 1.005-2.1 1.508-3.6 1.508-.64 0-1.31-.082-1.99-.245l.21-2.315c.4.094.79.141 1.17.141 1.05 0 1.89-.409 2.53-1.228.67-.818 1.17-2.08 1.5-3.786.33-1.73.56-4.009.68-6.838l.36-10.5186h16.92ZM1553.46 114.511v2.244h-17.64V92.2104h17.1v2.244h-14.46v8.7306h12.9v2.209h-12.9v9.117h15ZM1581.12 105.499h-5.7v11.256h-2.57V92.2104h2.57V103.22h5.7l8.44-11.0096h2.85l-9.26 11.9216 9.8 12.623h-3.03l-8.8-11.256ZM1621.41 116.965c-2.47 0-4.7-.538-6.7-1.613-1.97-1.075-3.52-2.56-4.66-4.453-1.12-1.917-1.68-4.056-1.68-6.417 0-2.36.56-4.4876 1.68-6.381 1.14-1.9168 2.7-3.4128 4.7-4.4881 1.99-1.0753 4.23-1.6129 6.7-1.6129 1.85 0 3.56.3039 5.13.9116 1.57.6078 2.9 1.4961 3.99 2.6648l-1.67 1.648c-1.95-1.9402-4.41-2.9102-7.38-2.9102-1.97 0-3.77.4441-5.38 1.3324-1.62.8882-2.89 2.1038-3.81 3.6465-.91 1.5429-1.36 3.2729-1.36 5.1889 0 1.917.45 3.647 1.36 5.19.92 1.543 2.19 2.758 3.81 3.646 1.61.889 3.41 1.333 5.38 1.333 2.99 0 5.45-.982 7.38-2.946l1.67 1.648c-1.09 1.169-2.43 2.069-4.03 2.7-1.56.608-3.27.912-5.13.912ZM1660 100.976c2.95 0 5.19.655 6.73 1.964 1.57 1.309 2.36 3.225 2.36 5.75 0 2.641-.83 4.652-2.5 6.031-1.64 1.356-4.01 2.034-7.12 2.034h-9.91V92.2104h2.6v8.7656h7.84Zm-.61 13.71c2.31 0 4.05-.503 5.24-1.508 1.21-1.005 1.82-2.489 1.82-4.453 0-3.763-2.35-5.645-7.06-5.645h-7.23v11.606h7.23Zm14.01-22.4756h2.6v24.5446h-2.6V92.2104Z"/>
    <animateTransform
      attributeName="transform"
      attributeType="XML"
      type="translate"
      values="100,0;-788,0;"
      begin="0s"
      dur="8s"
      repeatCount="indefinite" />
  </g>
</svg>